<svg width="500" height="484" viewBox="0 0 500 484" fill="none" xmlns="http://www.w3.org/2000/svg">
<path d="M61.3303 432.266H53.9551V432.62H61.3303V432.266Z" fill="#1A2129" fill-opacity="0.2"/>
<path d="M225.904 483.489C350.668 483.489 451.808 476.301 451.808 467.434C451.808 458.567 350.668 451.379 225.904 451.379C101.141 451.379 0 458.567 0 467.434C0 476.301 101.141 483.489 225.904 483.489Z" fill="#1A2129" fill-opacity="0.15"/>
<path d="M341.26 240.547H257.339V467.517H341.26V240.547Z" fill="#019CFE"/>
<path opacity="0.2" d="M281.04 240.32H257.326V467.56H281.04V240.32Z" fill="black"/>
<path d="M257.241 331.328H173.32V467.528H257.241V331.328Z" fill="#019CFE"/>
<path opacity="0.2" d="M198.538 331.328H173.32V467.386H198.538V331.328Z" fill="black"/>
<path d="M173.247 360.234H89.3262V467.515H173.247V360.234Z" fill="#019CFE"/>
<path opacity="0.2" d="M114.288 360.234H89.3262V467.373H114.288V360.234Z" fill="black"/>
<path d="M89.2981 389.156H5.37695V467.517H89.2981V389.156Z" fill="#019CFE"/>
<path opacity="0.2" d="M29.1037 389.094H5.38965V467.384H29.1037V389.094Z" fill="black"/>
<path d="M233.553 65.189C229.568 70.0113 225.455 74.7342 221.356 79.372L218.25 82.8894L215.413 85.9955C214.249 87.3916 213.502 89.0874 213.257 90.8886L212.321 100.051C212.009 103.157 211.697 106.263 211.343 109.355C210.648 115.567 209.924 121.779 209.102 127.977C208.97 128.955 208.478 129.849 207.723 130.485C206.968 131.12 206.003 131.452 205.017 131.414C204.03 131.377 203.093 130.974 202.388 130.284C201.683 129.593 201.26 128.665 201.202 127.679C200.847 121.439 200.606 115.198 200.393 108.972C200.266 105.852 200.209 102.731 200.124 99.6254L199.911 90.1086C200.016 85.6568 201.411 81.3312 203.925 77.6559L207.003 73.5003L209.839 69.7843C213.598 64.8487 217.37 59.8562 221.186 55.0907C222.502 53.4507 224.416 52.4008 226.507 52.1721C228.598 51.9433 230.694 52.5544 232.334 53.871C233.974 55.1875 235.024 57.1017 235.252 59.1923C235.481 61.2829 234.87 63.3788 233.553 65.0188V65.189Z" fill="#019CFE"/>
<path d="M200.268 128.451L195.077 137.259L207.019 138.464L209.118 129.529C209.179 129.278 209.187 129.018 209.143 128.763C209.099 128.509 209.004 128.266 208.863 128.05C208.723 127.834 208.54 127.648 208.325 127.505C208.11 127.362 207.869 127.264 207.615 127.217C206.37 126.927 205.079 126.887 203.818 127.098C202.557 127.31 201.35 127.77 200.268 128.451Z" fill="#CB7A63"/>
<path d="M195.077 137.277L195.63 140.383C195.758 141.128 196.146 141.804 196.725 142.29C197.304 142.775 198.037 143.04 198.793 143.036H202.679C203.262 143.034 203.832 142.874 204.332 142.575C204.831 142.275 205.24 141.846 205.516 141.334L207.033 138.497L195.077 137.277Z" fill="#CB7A63"/>
<path d="M199.414 121.867L210.902 122.264L210.165 129.129L200.464 128.377L199.414 121.867Z" fill="#019CFE"/>
<path opacity="0.3" d="M199.414 121.867L210.902 122.264L210.165 129.129L200.464 128.377L199.414 121.867Z" fill="white"/>
<path d="M210.974 193.914L209.087 196.751L207.669 193.815L211.116 149.28C211.655 142.189 209.272 136.388 200.464 136.175C192.224 135.977 187.231 141.607 186.65 148.67L183.047 193.12L181.076 195.956L179.729 193.035L183.359 148.599C184.026 140.387 187.614 133.792 200.634 134.104C213.654 134.416 215.058 141.196 214.42 149.379L210.974 193.914Z" fill="#263238"/>
<path d="M174.494 163.871H172.225C169.931 163.859 167.712 164.686 165.986 166.196C164.259 167.705 163.144 169.794 162.85 172.069L158.595 204.151L173.373 204.676L174.494 163.871Z" fill="#263238"/>
<path opacity="0.2" d="M174.494 163.871H172.225C169.931 163.859 167.712 164.686 165.986 166.196C164.259 167.705 163.144 169.794 162.85 172.069L158.595 204.151L173.373 204.676L174.494 163.871Z" fill="white"/>
<path d="M216.221 194.277L212.888 194.192L213.214 149.658C213.214 142.566 210.463 136.765 201.641 136.538C193.386 136.34 188.791 141.971 188.706 149.034L188.28 193.497L184.947 193.398L185.472 148.963C185.571 140.737 188.763 134.156 201.74 134.468C214.718 134.78 216.646 141.559 216.59 149.743L216.221 194.277Z" fill="#263238"/>
<path d="M231.879 206.408L166.212 204.45L166.836 171.347C166.84 170.351 167.041 169.366 167.43 168.448C167.818 167.531 168.386 166.7 169.098 166.004C169.811 165.309 170.656 164.762 171.582 164.396C172.509 164.03 173.499 163.852 174.495 163.873L222.32 165.121C224.946 165.217 227.432 166.333 229.248 168.231C231.065 170.13 232.07 172.662 232.05 175.29L231.879 206.408Z" fill="#263238"/>
<path opacity="0.4" d="M224.604 206.195L173.431 204.663C171.492 204.575 169.665 203.731 168.34 202.313C167.015 200.895 166.297 199.015 166.34 197.075L166.864 171.347C166.868 170.351 167.07 169.366 167.458 168.448C167.847 167.531 168.414 166.7 169.127 166.004C169.84 165.309 170.684 164.762 171.611 164.396C172.537 164.03 173.527 163.852 174.523 163.873L222.349 165.121C224.975 165.217 227.46 166.333 229.277 168.231C231.093 170.13 232.098 172.662 232.078 175.29L231.936 198.99C231.952 199.951 231.773 200.906 231.408 201.796C231.044 202.685 230.502 203.492 229.816 204.166C229.13 204.84 228.314 205.367 227.418 205.716C226.522 206.065 225.565 206.228 224.604 206.195Z" fill="white"/>
<g opacity="0.3">
<path d="M216.218 194.287L214.53 197.123L212.885 194.145L213.211 149.61C213.211 142.519 210.46 136.718 201.638 136.491C193.383 136.292 188.788 141.923 188.703 148.986L188.277 193.507L186.504 196.343L184.944 193.422L185.469 148.986C185.568 140.76 188.76 134.179 201.737 134.491C214.715 134.803 216.643 141.583 216.587 149.766L216.218 194.287Z" fill="white"/>
</g>
<path d="M189.33 176.316L183.855 176.174L183.884 174.117L189.358 174.259L189.33 176.316Z" fill="#263238"/>
<path d="M189.186 189.677L183.697 189.536L183.726 187.465L189.214 187.621L189.186 189.677Z" fill="#263238"/>
<path d="M217.467 177.088L211.964 176.932L211.978 174.875L217.481 175.017L217.467 177.088Z" fill="#263238"/>
<path d="M217.369 190.473L211.866 190.317L211.88 188.246L217.383 188.402L217.369 190.473Z" fill="#263238"/>
<path d="M206.987 177.975L195.243 177.649L195.286 173.238L207.029 173.565L206.987 177.975Z" fill="white"/>
<path d="M257.693 15.4475C258.147 15.3624 258.629 15.8304 258.771 16.5254C258.913 17.2204 258.686 17.8444 258.232 17.9437C257.778 18.043 257.296 17.5607 257.154 16.88C257.012 16.1992 257.239 15.5184 257.693 15.4475Z" fill="#263238"/>
<path d="M257.774 16.0092C258.253 15.7499 258.629 15.3344 258.838 14.832C258.453 15.1914 257.947 15.3937 257.42 15.3994C257.521 15.4676 257.606 15.5579 257.667 15.6636C257.729 15.7692 257.765 15.8874 257.774 16.0092Z" fill="#263238"/>
<path d="M258.685 22.9387C259.272 22.9636 259.858 22.8583 260.4 22.6302C260.942 22.4022 261.426 22.0571 261.819 21.6196C260.084 20.1117 258.562 18.3749 257.295 16.457L258.685 22.9387Z" fill="#B74D3C"/>
<path d="M253.893 14.2967C254.218 13.8923 254.634 13.5709 255.107 13.3589C255.581 13.1468 256.098 13.0502 256.616 13.077H256.758C256.813 13.077 256.868 13.0659 256.918 13.0444C256.969 13.0228 257.015 12.9913 257.054 12.9515C257.092 12.9118 257.122 12.8648 257.142 12.8133C257.162 12.7617 257.171 12.7067 257.169 12.6515C257.165 12.5411 257.119 12.4365 257.04 12.3598C256.96 12.283 256.854 12.2401 256.744 12.2402C256.096 12.1874 255.445 12.2884 254.843 12.5348C254.242 12.7813 253.707 13.1663 253.283 13.6585C253.221 13.7352 253.187 13.8298 253.184 13.928C253.187 14.0397 253.233 14.1459 253.312 14.2249C253.391 14.3039 253.497 14.3499 253.609 14.3534C253.707 14.3695 253.808 14.3494 253.893 14.2967Z" fill="#263238"/>
<path d="M249.582 55.2878C237.781 55.4154 235.966 48.9906 235.966 48.9906C239.483 45.5583 239.653 39.261 238.902 33.6445C239.852 34.9712 241.04 36.1108 242.405 37.0059C245.242 38.8639 251.354 35.8854 251.354 35.8854C251.354 35.8854 251.354 36.9208 251.44 38.4384C251.624 42.1118 252.432 48.5651 255.78 49.572C255.78 49.572 262.587 55.146 249.582 55.2878Z" fill="#CB7A63"/>
<path d="M251.525 36.8326C251.411 37.3716 251.284 37.9247 251.199 38.492C251.152 38.5035 251.103 38.5035 251.057 38.492C249.589 38.8518 248.062 38.9 246.574 38.6338C245.087 38.3675 243.671 37.7926 242.419 36.9461C241.044 36.059 239.851 34.9182 238.902 33.5847C238.718 32.1664 238.462 30.7481 238.207 29.5L251.057 36.5915L251.525 36.8326Z" fill="#CB7A63"/>
<path d="M259.976 27.2102C259.942 29.2389 259.391 31.2255 258.377 32.9824C257.362 34.7393 255.916 36.2086 254.175 37.2518C253.301 37.8065 252.343 38.2183 251.339 38.4715C251.292 38.4829 251.244 38.4829 251.197 38.4715C249.729 38.8313 248.202 38.8795 246.714 38.6133C245.227 38.347 243.811 37.7721 242.559 36.9256C241.184 36.0385 239.991 34.8977 239.042 33.5642C236.73 30.3872 235.766 26.1607 234.106 20.2038C233.545 18.2779 233.485 16.2403 233.932 14.2847C234.379 12.329 235.319 10.52 236.661 9.02948C238.004 7.53895 239.706 6.41632 241.604 5.76812C243.503 5.11993 245.535 4.96768 247.509 5.32584C256.36 6.99944 260.161 19.2394 259.976 27.2102Z" fill="#CB7A63"/>
<path opacity="0.2" d="M253.522 37.4946C252.891 37.9373 252.184 38.2595 251.437 38.4449C251.352 36.9273 251.366 35.8919 251.352 35.8919L251.522 33.2539C251.522 33.2539 252.912 37.4946 253.522 37.4946Z" fill="black"/>
<path d="M256.883 11.1824C255.919 12.7142 252.898 14.019 252.997 13.6502C253.522 12.3879 253.423 9.94847 251.848 10.5158C252.288 11.4944 253.593 18.7703 252.997 19.6638C252.671 20.1461 252.373 25.9611 249.891 31.1095C247.92 35.2084 247.92 36.4707 247.92 36.4707L239.864 38.0308C236.843 37.6479 234.034 33.7759 233.793 33.3788C232.73 31.5634 229.538 29.1239 227.836 27.9183C227.106 27.3543 226.554 26.5908 226.248 25.72C225.695 24.174 226.829 18.6285 227.07 15.9762C227.425 12.2177 229.397 8.72874 234.871 6.48782C238.247 5.06952 241.083 2.06273 244.544 0.814623C246.242 0.134025 248.079 -0.125979 249.899 0.0567686C251.719 0.239516 253.468 0.859594 254.997 1.86416C256.429 2.92789 259.294 7.29625 256.883 11.1824Z" fill="#263238"/>
<path d="M252.671 16.423C255.153 17.1605 256.443 20.8197 256.557 23.1316C256.67 25.6987 254.968 27.3865 252.727 25.5994C251.04 24.2784 249.834 22.4395 249.295 20.3659C248.699 17.8555 250.189 15.6997 252.671 16.423Z" fill="#CB7A63"/>
<path d="M255.665 24.9632C255.661 25.2504 255.545 25.5245 255.34 25.7263C255.136 25.928 254.86 26.0411 254.573 26.0411C254.287 26.0411 254.013 25.9275 253.811 25.7254C253.609 25.5232 253.495 25.2491 253.495 24.9632C253.495 24.676 253.608 24.4003 253.81 24.1959C254.012 23.9915 254.286 23.8748 254.573 23.8711C254.862 23.8748 255.137 23.991 255.341 24.195C255.545 24.399 255.661 24.6747 255.665 24.9632Z" fill="#019CFE"/>
<path opacity="0.3" d="M255.665 24.9632C255.661 25.2504 255.545 25.5245 255.34 25.7263C255.136 25.928 254.86 26.0411 254.573 26.0411C254.287 26.0411 254.013 25.9275 253.811 25.7254C253.609 25.5232 253.495 25.2491 253.495 24.9632C253.495 24.676 253.608 24.4003 253.81 24.1959C254.012 23.9915 254.286 23.8748 254.573 23.8711C254.862 23.8748 255.137 23.991 255.341 24.195C255.545 24.399 255.661 24.6747 255.665 24.9632Z" fill="white"/>
<path d="M232.587 53.2417C232.587 53.2417 234.417 47.5685 237.182 45.7956C239.948 44.0228 252.089 45.7956 253.989 46.6183C255.89 47.4409 257.776 51.7383 257.776 51.7383L232.587 53.2417Z" fill="#019CFE"/>
<path opacity="0.3" d="M232.587 53.2417C232.587 53.2417 234.417 47.5685 237.182 45.7956C239.948 44.0228 252.089 45.7956 253.989 46.6183C255.89 47.4409 257.776 51.7383 257.776 51.7383L232.587 53.2417Z" fill="white"/>
<path d="M260.301 50.8902C258.795 50.5441 257.27 50.2883 255.734 50.1244C249.221 49.8122 242.695 49.8832 236.19 50.3371C233.849 50.5333 231.529 50.9271 229.254 51.5143C227.004 52.0535 225.02 53.3754 223.656 55.2438C222.292 57.1121 221.637 59.4049 221.808 61.7119C222.773 74.9872 226.687 82.7878 227.269 91.4962C227.915 102.759 227.205 114.059 225.155 125.152L234.091 126.571C246.25 126.454 258.261 123.887 269.406 119.025C269.406 119.025 267.095 97.9778 269.321 90.3899C275.406 69.6544 271.449 66.3781 270.257 60.4496C269.765 58.0337 268.548 55.825 266.77 54.1174C264.991 52.4097 262.735 51.2841 260.301 50.8902Z" fill="#019CFE"/>
<path opacity="0.1" d="M269.335 90.3163C268.576 93.7655 268.252 97.2962 268.371 100.826C268.371 109.336 269.421 118.966 269.421 118.966C258.277 123.835 246.265 126.401 234.105 126.511L225.169 125.093C227.209 113.989 227.919 102.681 227.283 91.4084C226.687 82.6717 222.773 74.8852 221.808 61.6241C221.637 59.3171 222.292 57.0243 223.656 55.156C225.02 53.2877 227.004 51.9657 229.254 51.4265C231.529 50.8394 233.849 50.4456 236.19 50.2494C242.695 49.805 249.22 49.7292 255.734 50.0224C257.27 50.1977 258.794 50.4582 260.301 50.8025C262.73 51.2016 264.98 52.3296 266.753 54.0368C268.526 55.744 269.738 57.9499 270.229 60.3618C270.655 62.4893 271.449 64.2905 271.988 66.6591C272.851 70.9369 272.808 75.3482 271.86 79.6082C271.219 83.2218 270.376 86.7968 269.335 90.3163Z" fill="white"/>
<path d="M262.866 50.1889C266.128 50.6427 269.362 51.2951 272.596 51.8341C275.829 52.373 279.063 53.1105 282.283 53.8055L281.12 53.7062C282.538 53.7062 283.829 53.8764 284.623 53.9332C285.006 53.9332 285.275 53.9332 285.176 54.0183C285.077 54.1034 284.963 54.1034 284.751 54.2452C284.389 54.4399 284.063 54.694 283.786 54.9969C283.221 55.5398 282.86 56.2612 282.765 57.0392C282.765 57.3654 282.864 57.2803 282.878 57.0392C282.898 56.199 282.808 55.3597 282.609 54.543L282.751 54.9543C281.115 50.2267 279.579 45.4659 278.141 40.6721C276.723 35.864 275.432 31.0134 274.496 26.021C274.343 25.2114 274.477 24.3737 274.877 23.6529C275.276 22.932 275.914 22.3734 276.682 22.0738C277.45 21.7742 278.298 21.7524 279.08 22.0122C279.862 22.272 280.528 22.797 280.964 23.4964C283.659 27.7513 285.985 32.2473 288.24 36.7292C290.495 41.211 292.495 45.7496 294.551 50.3307L294.707 50.7562C295.362 52.3679 295.838 54.0469 296.125 55.7628C296.319 57.0366 296.319 58.3325 296.125 59.6064C295.805 61.6509 294.847 63.542 293.388 65.0101C292.636 65.7506 291.775 66.3723 290.835 66.8539C290.12 67.2183 289.369 67.5082 288.594 67.719C287.527 68.0108 286.435 68.2055 285.332 68.3005C283.559 68.4707 282.254 68.4707 281.077 68.5417H280.893L279.914 68.4282C276.638 68.0878 273.362 67.6907 270.1 67.2794C266.837 66.8681 263.575 66.4142 260.327 65.8611C258.399 65.3824 256.721 64.1973 255.625 62.5403C254.529 60.8834 254.095 58.8754 254.409 56.9138C254.723 54.9522 255.762 53.1798 257.32 51.9476C258.878 50.7153 260.842 50.113 262.824 50.2598L262.866 50.1889Z" fill="#019CFE"/>
<g opacity="0.1">
<path d="M262.87 50.1889C266.132 50.6427 269.366 51.2951 272.6 51.8341C275.833 52.373 279.067 53.1105 282.287 53.8055L281.124 53.7062C282.542 53.7062 283.833 53.8764 284.627 53.9332C285.01 53.9332 285.279 53.9332 285.18 54.0183C285.081 54.1034 284.967 54.1034 284.755 54.2452C284.393 54.4399 284.067 54.694 283.79 54.9969C283.225 55.5398 282.864 56.2612 282.769 57.0392C282.769 57.3654 282.868 57.2803 282.882 57.0392C282.902 56.199 282.812 55.3597 282.613 54.543L282.755 54.9543C281.119 50.2267 279.582 45.4659 278.145 40.6721C276.727 35.864 275.436 31.0134 274.5 26.021C274.347 25.2114 274.481 24.3737 274.88 23.6529C275.28 22.932 275.918 22.3734 276.686 22.0738C277.453 21.7742 278.302 21.7524 279.084 22.0122C279.866 22.272 280.532 22.797 280.968 23.4964C283.662 27.7513 285.988 32.2473 288.244 36.7292C290.499 41.211 292.498 45.7496 294.555 50.3307L294.711 50.7562C295.366 52.3679 295.842 54.0469 296.129 55.7628C296.323 57.0366 296.323 58.3325 296.129 59.6064C295.809 61.6509 294.851 63.542 293.392 65.0101C292.639 65.7506 291.779 66.3723 290.839 66.8539C290.124 67.2183 289.373 67.5082 288.598 67.719C287.531 68.0108 286.439 68.2055 285.336 68.3005C283.563 68.4707 282.258 68.4707 281.081 68.5417H280.897L279.918 68.4282C276.642 68.0878 273.366 67.6907 270.103 67.2794C266.841 66.8681 263.579 66.4142 260.331 65.8611C258.403 65.3824 256.725 64.1973 255.629 62.5403C254.533 60.8834 254.099 58.8754 254.413 56.9138C254.727 54.9522 255.766 53.1798 257.324 51.9476C258.882 50.7153 260.846 50.113 262.828 50.2598L262.87 50.1889Z" fill="white"/>
</g>
<path d="M321.518 19.6735L364.039 18.3686L363.387 5.05078L320.951 7.84483L321.518 19.6735Z" fill="#019CFE"/>
<path d="M289.377 20.1717L323.771 19.0654L323.246 8.14453L288.923 10.3571L289.377 20.1717Z" fill="#019CFE"/>
<path d="M319.218 19.3377L321.473 19.5789L320.92 7.90625L318.693 8.37428L319.218 19.3377Z" fill="#263238"/>
<path opacity="0.2" d="M319.218 19.3377L321.473 19.5789L320.92 7.90625L318.693 8.37428L319.218 19.3377Z" fill="black"/>
<path d="M321.486 19.6643L323.784 19.5934L323.217 7.67969L320.919 7.8357L321.486 19.6643Z" fill="#263238"/>
<path d="M284.044 18.5632L287.448 20.1517L287.009 10.5781L283.761 12.4787L284.044 18.5632Z" fill="#263238"/>
<path d="M266.573 18.4402L276.686 17.9154L276.473 13.4336L266.36 14.0293L266.573 18.4402Z" fill="#263238"/>
<path opacity="0.2" d="M266.573 18.4402L276.686 17.9154L276.473 13.4336L266.36 14.0293L266.573 18.4402Z" fill="black"/>
<path d="M275.293 18.8076L286.541 18.3822L286.257 12.1133L275.01 12.7799L275.293 18.8076Z" fill="#263238"/>
<path opacity="0.2" d="M284.044 18.5632L287.448 20.1517L287.009 10.5781L283.761 12.4787L284.044 18.5632Z" fill="black"/>
<path d="M287.518 20.2347L289.376 20.1779L288.922 10.3633L287.05 10.4767L287.518 20.2347Z" fill="#263238"/>
<path d="M362.59 18.4008L369.27 18.1597L368.604 4.78516L361.938 5.12556L362.59 18.4008Z" fill="#263238"/>
<path d="M365.569 19.3479L374.079 19.1068L374.292 18.5111C375.191 16.0176 375.566 13.3657 375.396 10.7206C375.225 8.07547 374.511 5.4939 373.299 3.13672L364.789 3.71822L364.973 4.1579C366.994 8.98434 367.206 14.378 365.569 19.3479Z" fill="#019CFE"/>
<g opacity="0.4">
<path d="M356.492 6.52134L359.924 6.30859L359.995 7.72689L356.506 7.93964C356.442 7.46933 356.437 6.99284 356.492 6.52134Z" fill="white"/>
<path d="M354.407 6.67188C354.354 7.14313 354.354 7.61892 354.407 8.09018L324.58 9.76377L324.438 8.4873L354.407 6.67188Z" fill="white"/>
</g>
<g opacity="0.4">
<path d="M289.646 11.1283L289.703 12.3197L317.757 10.6603L317.686 9.35547L289.646 11.1283Z" fill="white"/>
</g>
<g opacity="0.4">
<path d="M365.538 4.16725L365.623 5.65647L372.275 5.2168L372.204 3.69922L365.538 4.16725Z" fill="white"/>
</g>
<path opacity="0.3" d="M373.197 17.1367C373.141 17.6457 373.141 18.1595 373.197 18.6685L366.318 18.8954L366.233 17.4771L373.197 17.1367Z" fill="black"/>
<path opacity="0.3" d="M360.876 16.3164C360.817 16.7873 360.817 17.2638 360.876 17.7347L324.44 19.0963L324.369 17.7631L360.876 16.3164Z" fill="black"/>
<path opacity="0.3" d="M317.418 17.5898C317.376 18.0237 317.376 18.4608 317.418 18.8947L290.286 19.8449V18.6536L317.418 17.5898Z" fill="black"/>
<path d="M264.302 14.2006L264.387 18.4555C264.415 18.8116 264.577 19.1439 264.84 19.3858C265.103 19.6277 265.448 19.7615 265.805 19.7603H269.28L269.138 12.7539L265.663 12.8815C265.314 12.8947 264.981 13.0367 264.73 13.2802C264.478 13.5237 264.326 13.8515 264.302 14.2006Z" fill="#019CFE"/>
<path d="M282.271 26.0828L283.59 18.0978C283.626 17.7678 283.626 17.435 283.59 17.105L283.207 12.8501C283.175 12.5623 283.06 12.2901 282.876 12.0662C282.692 11.8422 282.448 11.6761 282.172 11.5878H275.79C275.401 11.4523 274.976 11.4674 274.597 11.6302C274.219 11.793 273.916 12.0916 273.747 12.4671L272.598 17.7007C272.506 18.0876 272.506 18.4909 272.598 18.8779L274.499 26.0828C274.602 26.3947 274.789 26.6722 275.039 26.8848C275.289 27.0975 275.593 27.2371 275.917 27.2884H280.087C280.537 27.4119 281.016 27.355 281.424 27.1298C281.832 26.9046 282.136 26.5289 282.271 26.0828Z" fill="#CE7A63"/>
<path d="M286.015 29.4584L275.165 33.2736L273.363 26.6076L282.682 23.7852L286.015 29.4584Z" fill="#019CFE"/>
<path opacity="0.3" d="M286.015 29.4584L275.165 33.2736L273.363 26.6076L282.682 23.7852L286.015 29.4584Z" fill="white"/>
<path opacity="0.2" d="M271.958 79.6473L263.646 63.9609L272.156 66.6982C272.996 70.981 272.929 75.3924 271.958 79.6473Z" fill="black"/>
<path d="M314.752 209.841L313.021 231.158L322.723 231.342L325.389 209.387L314.752 209.841Z" fill="#CE7A63"/>
<path d="M324.251 228.418L313.202 228.645C312.993 228.655 312.792 228.736 312.635 228.876C312.478 229.015 312.373 229.204 312.337 229.411L310.437 239.112C310.341 239.511 310.405 239.93 310.614 240.283C310.824 240.635 311.162 240.892 311.557 240.998H311.869C315.855 240.842 319.401 240.545 324.365 240.445C330.222 240.332 328.747 241.112 335.64 241.084C339.782 241.084 340.491 235.978 338.732 235.765C330.662 234.829 329.811 232.248 326.662 229.212C325.993 228.643 325.128 228.358 324.251 228.418Z" fill="#263238"/>
<path d="M208.861 301.16L204.933 320.718L215.357 323.91L220.392 303.926L208.861 301.16Z" fill="#CE7A63"/>
<path d="M264.643 119.828C264.643 119.828 249.807 206.444 241.737 231.874C236.064 250.014 220.604 309.398 220.604 309.398L206.719 306.363C206.719 306.363 205.159 265.941 212.917 245.078C215.569 237.987 219.03 231.533 220.009 227.123C224.008 208.273 215.754 174.078 219.413 148.577C220.531 140.465 222.607 132.515 225.597 124.891L264.643 119.828Z" fill="#263238"/>
<path d="M241.737 231.926C236.064 250.066 220.604 309.45 220.604 309.45L206.719 306.358C206.719 306.358 205.159 265.937 212.917 245.074C215.569 237.982 219.03 231.529 220.009 227.118C224.008 208.269 215.754 174.073 219.413 148.572C220.531 140.461 222.607 132.51 225.597 124.887" fill="#263238"/>
<path opacity="0.2" d="M246.444 146.594L253.919 175.924L259.379 147.87L246.444 146.594Z" fill="black"/>
<path d="M326.068 220.069L312.424 220.509C312.424 220.509 313.431 202.652 313.431 176.541C313.467 172.656 313.972 168.789 314.934 165.025C316.108 160.221 317.816 155.564 320.026 151.14L316.069 151.338C308.353 151.735 260.528 154.175 259.592 154.175C258.883 154.104 254.528 154.685 246.742 150.884C232.261 143.793 232.119 123.937 232.119 123.937L269.406 118.973C269.406 118.973 270.016 119.086 278.994 119.242C306.211 119.71 339.655 120.76 345.527 130.106C353.781 143.254 326.068 220.069 326.068 220.069Z" fill="#263238"/>
<path d="M215.88 318.844L204.448 318.986C204.237 318.988 204.035 319.067 203.878 319.208C203.721 319.349 203.621 319.543 203.597 319.752L202.179 329.538C202.12 329.958 202.217 330.386 202.453 330.739C202.688 331.092 203.045 331.346 203.455 331.453H203.782C207.909 331.325 211.554 331.042 216.688 330.971C222.759 330.9 221.269 331.68 228.389 331.68C232.644 331.68 233.141 326.56 231.311 326.333C222.9 325.354 221.865 322.73 218.447 319.653C217.723 319.071 216.807 318.782 215.88 318.844Z" fill="#263238"/>
<path opacity="0.2" d="M314.936 165.094C316.11 160.291 317.818 155.633 320.027 151.209L316.07 151.408C315.953 151.361 315.828 151.337 315.701 151.337L325.63 150.5L314.936 165.094Z" fill="black"/>
</svg>
