<svg width="500" height="373" viewBox="0 0 500 373" fill="none" xmlns="http://www.w3.org/2000/svg">
<path d="M500 327.402H0V327.652H500V327.402Z" fill="#EBEBEB"/>
<path d="M449.9 343.488H416.78V343.738H449.9V343.488Z" fill="#EBEBEB"/>
<path d="M331.22 346.211H322.53V346.461H331.22V346.211Z" fill="#EBEBEB"/>
<path d="M415.78 334.207H396.59V334.457H415.78V334.207Z" fill="#EBEBEB"/>
<path d="M95.65 335.891H52.46V336.141H95.65V335.891Z" fill="#EBEBEB"/>
<path d="M110.89 335.891H104.56V336.141H110.89V335.891Z" fill="#EBEBEB"/>
<path d="M225.15 340.113H131.47V340.363H225.15V340.113Z" fill="#EBEBEB"/>
<path d="M237 282.8H43.9098C42.3972 282.797 40.9474 282.195 39.8787 281.124C38.8101 280.054 38.2098 278.603 38.2098 277.09V5.66C38.223 4.15603 38.829 2.71798 39.8963 1.65822C40.9635 0.598458 42.4058 0.00257639 43.9098 0H237C238.514 0 239.967 0.601588 241.037 1.67242C242.108 2.74325 242.71 4.19561 242.71 5.71V277.09C242.71 278.604 242.108 280.057 241.037 281.128C239.967 282.198 238.514 282.8 237 282.8ZM43.9098 0.200001C42.4635 0.20265 41.0773 0.779065 40.0555 1.80273C39.0337 2.82639 38.4598 4.21365 38.4598 5.66V277.09C38.4598 278.536 39.0337 279.924 40.0555 280.947C41.0773 281.971 42.4635 282.547 43.9098 282.55H237C238.447 282.547 239.834 281.971 240.858 280.948C241.881 279.924 242.457 278.537 242.46 277.09V5.66C242.457 4.21273 241.881 2.82549 240.858 1.80212C239.834 0.77874 238.447 0.202644 237 0.200001H43.9098Z" fill="#EBEBEB"/>
<path d="M453.31 282.8H260.21C258.696 282.797 257.246 282.195 256.175 281.125C255.105 280.054 254.503 278.604 254.5 277.09V5.66C254.516 4.15511 255.124 2.71708 256.193 1.65759C257.262 0.598109 258.705 0.00254829 260.21 0H453.31C454.812 0.0052045 456.252 0.602249 457.317 1.66173C458.382 2.72121 458.987 4.15775 459 5.66V277.09C459 278.601 458.401 280.05 457.335 281.121C456.268 282.191 454.821 282.795 453.31 282.8ZM260.21 0.200001C258.763 0.202644 257.375 0.77874 256.352 1.80212C255.329 2.82549 254.753 4.21273 254.75 5.66V277.09C254.753 278.537 255.329 279.924 256.352 280.948C257.375 281.971 258.763 282.547 260.21 282.55H453.31C454.757 282.547 456.145 281.971 457.168 280.948C458.191 279.924 458.767 278.537 458.77 277.09V5.66C458.767 4.21273 458.191 2.82549 457.168 1.80212C456.145 0.77874 454.757 0.202644 453.31 0.200001H260.21Z" fill="#EBEBEB"/>
<path d="M134.39 81.467H78.88L79.73 73.957H135.24L134.39 81.467Z" fill="#F5F5F5"/>
<path d="M130.41 116.549H74.8999L75.7499 109.039H131.26L130.41 116.549Z" fill="#F5F5F5"/>
<path d="M126.44 151.633H70.9298L71.7798 144.133H127.29L126.44 151.633Z" fill="#F5F5F5"/>
<path d="M122.46 186.711H66.95L67.8 179.211H123.31L122.46 186.711Z" fill="#F5F5F5"/>
<path d="M118.49 221.789H62.9799L63.8299 214.289H119.34L118.49 221.789Z" fill="#F5F5F5"/>
<path d="M114.52 256.881H59.0098L59.8598 249.371H115.36L114.52 256.881Z" fill="#F5F5F5"/>
<path d="M110.54 291.959H55.0299L55.8799 284.449H111.39L110.54 291.959Z" fill="#F5F5F5"/>
<path d="M54.81 327.651H46.12L76.55 59.0312H85.24L54.81 327.651Z" fill="#EBEBEB"/>
<path d="M111.37 327.651H102.68L133.11 59.0312H141.8L111.37 327.651Z" fill="#EBEBEB"/>
<path d="M444.34 43.6328H339.64V327.653H444.34V43.6328Z" fill="#F5F5F5"/>
<path d="M438.61 49.8711H345.38V96.2011H438.61V49.8711Z" fill="#EBEBEB"/>
<path d="M385.86 67.3711H357.03V96.2011H385.86V67.3711Z" fill="#F0F0F0"/>
<path d="M416.74 75.6797H396.22V96.1997H416.74V75.6797Z" fill="#F0F0F0"/>
<path d="M438.61 101.059H345.38V147.389H438.61V101.059Z" fill="#EBEBEB"/>
<path d="M370.91 118.559H357.03V147.389H370.91V118.559Z" fill="#F0F0F0"/>
<path d="M416.75 135.57H385.87V147.39H416.75V135.57Z" fill="#F0F0F0"/>
<path d="M409.98 117.941H380V135.571H409.98V117.941Z" fill="#F0F0F0"/>
<path d="M438.61 152.246H345.38V198.576H438.61V152.246Z" fill="#EBEBEB"/>
<path d="M385.87 169.75H380V198.58H385.87V169.75Z" fill="#F0F0F0"/>
<path d="M432.22 159.559H396.22V198.579H432.22V159.559Z" fill="#F0F0F0"/>
<path d="M438.61 203.441H345.38V249.771H438.61V203.441Z" fill="#EBEBEB"/>
<path d="M385.86 220.941H357.03V249.771H385.86V220.941Z" fill="#F0F0F0"/>
<path d="M416.74 229.25H396.22V249.77H416.74V229.25Z" fill="#F0F0F0"/>
<path d="M438.61 254.629H345.38V300.959H438.61V254.629Z" fill="#EBEBEB"/>
<path d="M385.86 272.121H357.03V300.951H385.86V272.121Z" fill="#F0F0F0"/>
<path d="M416.74 280.441H396.22V300.961H416.74V280.441Z" fill="#F0F0F0"/>
<path d="M385.87 29.3477H354.29V43.6277H385.87V29.3477Z" fill="#F0F0F0"/>
<path d="M414.22 36.4922H397.97V43.6322H414.22V36.4922Z" fill="#F0F0F0"/>
<path d="M97.37 327.652H188.04V246.342H97.37L97.37 327.652Z" fill="#EBEBEB"/>
<path d="M156.48 327.652H188.04V246.342H156.48V327.652Z" fill="#E0E0E0"/>
<path d="M79.3199 248.016H169.99V181.826H79.3199L79.3199 248.016Z" fill="#F5F5F5"/>
<path d="M138.43 248.016H169.99V181.826H138.43V248.016Z" fill="#EBEBEB"/>
<path d="M100.6 181.82H188.04V149.42H100.6V181.82Z" fill="#FAFAFA"/>
<path d="M157.6 181.82H188.03V149.42H157.6V181.82Z" fill="#F0F0F0"/>
<path d="M189.54 29.3477H65.6802V36.4877H189.54V29.3477Z" fill="#F0F0F0"/>
<path d="M92.8899 19.2461H74.8999V29.3461H92.8899V19.2461Z" fill="#F5F5F5"/>
<path d="M116.1 10.2891H97.04V29.3491H116.1V10.2891Z" fill="#F0F0F0"/>
<path d="M132.5 19.8164H122.97V29.3464H132.5V19.8164Z" fill="#EBEBEB"/>
<path d="M148.64 24.7464C148.642 25.7243 148.354 26.6808 147.812 27.4947C147.27 28.3086 146.498 28.9433 145.595 29.3185C144.692 29.6936 143.698 29.7923 142.739 29.602C141.78 29.4117 140.899 28.941 140.207 28.2495C139.516 27.558 139.045 26.6769 138.855 25.7177C138.664 24.7585 138.763 23.7644 139.138 22.8613C139.513 21.9583 140.148 21.1868 140.962 20.6448C141.776 20.1027 142.732 19.8144 143.71 19.8164C145.017 19.8191 146.269 20.3393 147.193 21.2633C148.117 22.1873 148.637 23.4397 148.64 24.7464Z" fill="#F5F5F5"/>
<path d="M154.88 29.3491L160.87 10.2891H170.76L176.23 29.6891L154.88 29.3491Z" fill="#EBEBEB"/>
<path d="M250 372.558C357.082 372.558 443.89 367.49 443.89 361.238C443.89 354.986 357.082 349.918 250 349.918C142.917 349.918 56.11 354.986 56.11 361.238C56.11 367.49 142.917 372.558 250 372.558Z" fill="#F5F5F5"/>
<path d="M327.62 63.3711V359.841C327.621 360.416 327.508 360.985 327.288 361.515C327.067 362.046 326.743 362.527 326.334 362.931C325.926 363.335 325.441 363.653 324.908 363.868C324.375 364.083 323.805 364.189 323.23 364.181H185.23C184.719 364.189 184.212 364.095 183.738 363.904C183.264 363.714 182.833 363.43 182.47 363.071C182.094 362.695 181.797 362.247 181.596 361.754C181.395 361.261 181.294 360.733 181.3 360.201V63.0011C181.265 62.0743 181.599 61.1715 182.229 60.4909C182.859 59.8103 183.733 59.4075 184.66 59.3711H223.85C224.397 59.3815 224.929 59.5544 225.378 59.8678C225.826 60.1812 226.172 60.6209 226.37 61.1311L228 65.1311C228.199 65.6401 228.544 66.0785 228.993 66.3902C229.442 66.7019 229.974 66.8728 230.52 66.8811H278.52C279.064 66.8778 279.594 66.7124 280.043 66.406C280.492 66.0996 280.839 65.6661 281.04 65.1611L282.67 61.1611C282.867 60.6491 283.211 60.2072 283.66 59.892C284.109 59.5767 284.642 59.4023 285.19 59.3911H323.81C324.834 59.4398 325.8 59.8799 326.509 60.6205C327.218 61.3612 327.616 62.3458 327.62 63.3711Z" fill="#0166FE"/>
<path opacity="0.6" d="M199.51 71.3203H201.55V68.6003H199.51V71.3203Z" fill="white"/>
<path opacity="0.6" d="M196.18 71.3203H198.22V67.7003H196.18V71.3203Z" fill="white"/>
<path opacity="0.6" d="M192.87 71.3203H194.91V66.7903H192.87V71.3203Z" fill="white"/>
<path opacity="0.6" d="M189.54 71.3203H191.58V65.8803H189.54V71.3203Z" fill="white"/>
<path opacity="0.6" d="M308.94 67.6133H307.73V70.3333H308.94V67.6133Z" fill="white"/>
<path opacity="0.6" d="M309.78 71.3203H319.41V66.6203H309.78V71.3203Z" fill="white"/>
<g opacity="0.1">
<path d="M247.14 66.8794L205 224.639L204.53 226.419L203.77 229.269L203.29 231.039L181.29 313.419V213.719L222.5 59.3594H223.84C224.388 59.3685 224.92 59.5409 225.369 59.8544C225.818 60.168 226.163 60.6084 226.36 61.1194L227.99 65.1194C228.188 65.6292 228.533 66.0683 228.982 66.3801C229.431 66.692 229.963 66.8624 230.51 66.8694L247.14 66.8794Z" fill="white"/>
<path d="M327.62 147.449V247.149L301.36 345.549L300.72 347.939L296.38 364.179H269.77L274.1 347.949L274.8 345.349L278.27 332.309L278.97 329.699L280.37 324.489L281.06 321.879L282.45 316.669L283.14 314.059L305.04 232.039V232.029L306.05 228.249V228.239L327.62 147.449Z" fill="white"/>
<path d="M261.56 66.8798L219.71 223.66L219.45 224.6L217.16 233.19L216.91 234.13L182.49 363.07C182.114 362.693 181.817 362.246 181.616 361.753C181.415 361.26 181.314 360.732 181.32 360.2V345L210.93 234.09L211.18 233.15L213.47 224.56L213.72 223.62L255.58 66.8398L261.56 66.8798Z" fill="white"/>
</g>
<path opacity="0.3" d="M327.62 78.6992H181.32V351.049H327.62V78.6992Z" fill="white"/>
<path d="M299.47 198.382C300.823 198.382 302.12 197.845 303.076 196.888C304.033 195.932 304.57 194.635 304.57 193.282V112.832C304.568 111.481 304.029 110.187 303.073 109.232C302.117 108.278 300.821 107.742 299.47 107.742C298.119 107.742 296.824 108.278 295.868 109.232C294.911 110.187 294.373 111.481 294.37 112.832V193.282C294.37 194.635 294.908 195.932 295.864 196.888C296.82 197.845 298.118 198.382 299.47 198.382Z" fill="#0166FE"/>
<path opacity="0.3" d="M299.47 196.38C298.648 196.38 297.86 196.054 297.278 195.473C296.697 194.891 296.37 194.103 296.37 193.28V112.83C296.37 112.008 296.697 111.22 297.278 110.638C297.86 110.057 298.648 109.73 299.47 109.73C300.292 109.73 301.081 110.057 301.662 110.638C302.244 111.22 302.57 112.008 302.57 112.83V193.28C302.57 194.103 302.244 194.891 301.662 195.473C301.081 196.054 300.292 196.38 299.47 196.38Z" fill="black"/>
<path d="M306.777 121.956C307.431 117.928 304.695 114.132 300.666 113.478C296.638 112.824 292.842 115.56 292.188 119.588C291.534 123.617 294.269 127.413 298.298 128.067C302.327 128.721 306.123 125.985 306.777 121.956Z" fill="#0166FE"/>
<path d="M269.47 198.382C270.14 198.382 270.803 198.25 271.422 197.994C272.041 197.738 272.603 197.362 273.076 196.888C273.55 196.415 273.926 195.853 274.182 195.234C274.438 194.615 274.57 193.952 274.57 193.282V112.832C274.567 111.481 274.029 110.187 273.073 109.232C272.117 108.278 270.821 107.742 269.47 107.742C268.119 107.742 266.824 108.278 265.867 109.232C264.911 110.187 264.373 111.481 264.37 112.832V193.282C264.37 194.635 264.907 195.932 265.864 196.888C266.82 197.845 268.118 198.382 269.47 198.382Z" fill="#0166FE"/>
<path opacity="0.3" d="M269.47 196.38C268.648 196.38 267.859 196.054 267.278 195.473C266.697 194.891 266.37 194.103 266.37 193.28V112.83C266.37 112.008 266.697 111.22 267.278 110.638C267.859 110.057 268.648 109.73 269.47 109.73C270.292 109.73 271.081 110.057 271.662 110.638C272.243 111.22 272.57 112.008 272.57 112.83V193.28C272.57 194.103 272.243 194.891 271.662 195.473C271.081 196.054 270.292 196.38 269.47 196.38Z" fill="black"/>
<path d="M276.775 181.953C277.429 177.924 274.693 174.128 270.664 173.474C266.635 172.82 262.839 175.556 262.186 179.584C261.532 183.613 264.267 187.409 268.296 188.063C272.325 188.717 276.121 185.981 276.775 181.953Z" fill="#0166FE"/>
<path d="M239.47 198.382C240.823 198.382 242.12 197.845 243.076 196.888C244.033 195.932 244.57 194.635 244.57 193.282V112.832C244.567 111.481 244.029 110.187 243.073 109.232C242.117 108.278 240.821 107.742 239.47 107.742C238.119 107.742 236.824 108.278 235.867 109.232C234.911 110.187 234.373 111.481 234.37 112.832V193.282C234.37 194.635 234.907 195.932 235.864 196.888C236.82 197.845 238.118 198.382 239.47 198.382Z" fill="#0166FE"/>
<path opacity="0.3" d="M239.47 196.38C238.648 196.38 237.859 196.054 237.278 195.473C236.697 194.891 236.37 194.103 236.37 193.28V112.83C236.37 112.008 236.697 111.22 237.278 110.638C237.859 110.057 238.648 109.73 239.47 109.73C240.292 109.73 241.081 110.057 241.662 110.638C242.244 111.22 242.57 112.008 242.57 112.83V193.28C242.57 194.103 242.244 194.891 241.662 195.473C241.081 196.054 240.292 196.38 239.47 196.38Z" fill="black"/>
<path d="M246.775 141.953C247.429 137.924 244.693 134.128 240.664 133.474C236.636 132.82 232.84 135.556 232.186 139.584C231.532 143.613 234.267 147.409 238.296 148.063C242.325 148.717 246.121 145.981 246.775 141.953Z" fill="#0166FE"/>
<path d="M209.47 198.382C210.823 198.382 212.12 197.845 213.076 196.888C214.033 195.932 214.57 194.635 214.57 193.282V112.832C214.567 111.481 214.029 110.187 213.073 109.232C212.117 108.278 210.821 107.742 209.47 107.742C208.119 107.742 206.823 108.278 205.867 109.232C204.911 110.187 204.373 111.481 204.37 112.832V193.282C204.37 194.635 204.907 195.932 205.864 196.888C206.82 197.845 208.117 198.382 209.47 198.382Z" fill="#0166FE"/>
<path opacity="0.3" d="M209.47 196.38C208.648 196.38 207.859 196.054 207.278 195.473C206.696 194.891 206.37 194.103 206.37 193.28V112.83C206.37 112.008 206.696 111.22 207.278 110.638C207.859 110.057 208.648 109.73 209.47 109.73C210.292 109.73 211.081 110.057 211.662 110.638C212.243 111.22 212.57 112.008 212.57 112.83V193.28C212.57 194.103 212.243 194.891 211.662 195.473C211.081 196.054 210.292 196.38 209.47 196.38Z" fill="black"/>
<path d="M216.771 171.953C217.424 167.924 214.689 164.128 210.66 163.474C206.631 162.82 202.835 165.556 202.182 169.584C201.528 173.613 204.263 177.409 208.292 178.063C212.321 178.717 216.117 175.981 216.771 171.953Z" fill="#0166FE"/>
<path opacity="0.6" d="M306.777 121.956C307.431 117.928 304.695 114.132 300.666 113.478C296.638 112.824 292.842 115.56 292.188 119.588C291.534 123.617 294.269 127.413 298.298 128.067C302.327 128.721 306.123 125.985 306.777 121.956Z" fill="white"/>
<path opacity="0.6" d="M299.47 126.151C298.404 126.151 297.362 125.835 296.476 125.243C295.589 124.65 294.898 123.809 294.49 122.824C294.083 121.839 293.976 120.755 294.184 119.71C294.392 118.664 294.905 117.704 295.659 116.95C296.413 116.196 297.373 115.683 298.419 115.475C299.464 115.267 300.548 115.373 301.533 115.781C302.518 116.189 303.36 116.88 303.952 117.767C304.544 118.653 304.86 119.695 304.86 120.761C304.858 122.19 304.289 123.559 303.279 124.569C302.268 125.58 300.899 126.148 299.47 126.151Z" fill="white"/>
<path opacity="0.6" d="M276.775 181.953C277.429 177.924 274.693 174.128 270.664 173.474C266.635 172.82 262.839 175.556 262.186 179.584C261.532 183.613 264.267 187.409 268.296 188.063C272.325 188.717 276.121 185.981 276.775 181.953Z" fill="white"/>
<path opacity="0.6" d="M269.47 186.155C268.404 186.155 267.362 185.839 266.476 185.247C265.589 184.654 264.898 183.813 264.49 182.828C264.082 181.843 263.976 180.759 264.184 179.713C264.392 178.668 264.905 177.708 265.659 176.954C266.413 176.2 267.373 175.687 268.419 175.479C269.464 175.271 270.548 175.377 271.533 175.785C272.518 176.193 273.359 176.884 273.952 177.77C274.544 178.657 274.86 179.699 274.86 180.765C274.857 182.194 274.289 183.563 273.278 184.573C272.268 185.584 270.899 186.152 269.47 186.155Z" fill="white"/>
<path opacity="0.6" d="M246.775 141.953C247.429 137.924 244.693 134.128 240.664 133.474C236.636 132.82 232.84 135.556 232.186 139.584C231.532 143.613 234.267 147.409 238.296 148.063C242.325 148.717 246.121 145.981 246.775 141.953Z" fill="white"/>
<path opacity="0.6" d="M239.47 146.151C238.404 146.151 237.362 145.835 236.476 145.243C235.589 144.65 234.898 143.809 234.49 142.824C234.082 141.839 233.976 140.755 234.184 139.71C234.392 138.664 234.905 137.704 235.659 136.95C236.413 136.196 237.373 135.683 238.419 135.475C239.464 135.267 240.548 135.373 241.533 135.781C242.518 136.189 243.359 136.88 243.952 137.767C244.544 138.653 244.86 139.695 244.86 140.761C244.857 142.19 244.289 143.559 243.278 144.569C242.268 145.58 240.899 146.148 239.47 146.151Z" fill="white"/>
<path opacity="0.6" d="M216.771 171.953C217.424 167.924 214.689 164.128 210.66 163.474C206.631 162.82 202.835 165.556 202.182 169.584C201.528 173.613 204.263 177.409 208.292 178.063C212.321 178.717 216.117 175.981 216.771 171.953Z" fill="white"/>
<path opacity="0.6" d="M209.47 176.151C208.404 176.151 207.362 175.835 206.475 175.243C205.589 174.65 204.898 173.809 204.49 172.824C204.082 171.839 203.976 170.755 204.184 169.71C204.391 168.664 204.905 167.704 205.659 166.95C206.412 166.196 207.373 165.683 208.418 165.475C209.464 165.267 210.548 165.373 211.533 165.781C212.518 166.189 213.359 166.88 213.952 167.767C214.544 168.653 214.86 169.695 214.86 170.761C214.857 172.19 214.289 173.559 213.278 174.569C212.268 175.58 210.899 176.148 209.47 176.151Z" fill="white"/>
<path d="M317.8 216.562H191.14C189.621 216.562 188.39 217.794 188.39 219.312V337.612C188.39 339.131 189.621 340.362 191.14 340.362H317.8C319.319 340.362 320.55 339.131 320.55 337.612V219.312C320.55 217.794 319.319 216.562 317.8 216.562Z" fill="#0166FE"/>
<path opacity="0.3" d="M317.8 216.562H191.14C189.621 216.562 188.39 217.794 188.39 219.312V337.612C188.39 339.131 189.621 340.362 191.14 340.362H317.8C319.319 340.362 320.55 339.131 320.55 337.612V219.312C320.55 217.794 319.319 216.562 317.8 216.562Z" fill="black"/>
<path opacity="0.6" d="M242.55 296.811V307.451L248 308.001C248.726 311.503 250.111 314.835 252.08 317.821L248.56 322.081L256.09 329.601L260.34 326.081C263.328 328.055 266.664 329.443 270.17 330.171L270.68 335.651H281.33L281.84 330.171C285.347 329.443 288.683 328.055 291.67 326.081L295.92 329.601L303.45 322.081L300 317.791C301.969 314.803 303.356 311.472 304.09 307.971L309.57 307.451V296.811L304.09 296.291C303.356 292.786 301.969 289.451 300 286.461L303.52 282.211L296 274.681L291.75 278.201C288.76 276.234 285.425 274.849 281.92 274.121L281.41 268.641H270.71L270.2 274.121C266.696 274.849 263.361 276.234 260.37 278.201L256.12 274.681L248.59 282.211L252.11 286.461C250.142 289.451 248.754 292.786 248.02 296.291L242.55 296.811ZM276 287.721C278.85 287.721 281.636 288.566 284.006 290.149C286.376 291.733 288.223 293.983 289.313 296.616C290.404 299.249 290.689 302.147 290.133 304.942C289.577 307.737 288.205 310.305 286.19 312.32C284.174 314.335 281.607 315.708 278.812 316.264C276.016 316.82 273.119 316.534 270.486 315.444C267.853 314.353 265.602 312.506 264.019 310.136C262.435 307.767 261.59 304.981 261.59 302.131C261.59 300.238 261.963 298.364 262.687 296.616C263.411 294.868 264.473 293.279 265.811 291.941C267.149 290.603 268.738 289.542 270.486 288.818C272.234 288.093 274.108 287.721 276 287.721Z" fill="white"/>
<path opacity="0.4" d="M199.41 266.255V274.595L203.71 274.995C204.278 277.741 205.364 280.355 206.91 282.695L204.15 286.005L210.05 291.895L213.38 289.135C215.721 290.681 218.334 291.77 221.08 292.345L221.49 296.635H229.83L230.23 292.345C232.977 291.772 235.59 290.682 237.93 289.135L241.26 291.895L247.16 286.005L244.4 282.665C245.95 280.325 247.039 277.712 247.61 274.965L251.9 274.565V266.225L247.61 265.815C247.035 263.068 245.946 260.456 244.4 258.115L247.16 254.785L241.26 248.885L237.93 251.645C235.587 250.104 232.975 249.018 230.23 248.445L229.83 244.145H221.49L221.08 248.445C218.336 249.02 215.724 250.106 213.38 251.645L210.05 248.885L204.15 254.785L206.91 258.115C205.367 260.456 204.281 263.069 203.71 265.815L199.41 266.255ZM225.66 259.135C227.893 259.135 230.076 259.797 231.932 261.037C233.789 262.278 235.236 264.041 236.091 266.104C236.945 268.167 237.169 270.437 236.733 272.627C236.297 274.817 235.222 276.829 233.643 278.408C232.064 279.987 230.053 281.062 227.863 281.498C225.673 281.933 223.403 281.71 221.34 280.855C219.277 280.001 217.513 278.554 216.273 276.697C215.032 274.84 214.37 272.657 214.37 270.425C214.37 267.43 215.56 264.559 217.677 262.441C219.794 260.324 222.666 259.135 225.66 259.135Z" fill="white"/>
<path opacity="0.2" d="M245.92 240.501V247.501L249.53 247.841C250.015 250.146 250.928 252.341 252.22 254.311L249.9 257.101L254.9 262.101L257.69 259.781C259.66 261.073 261.854 261.986 264.16 262.471L264.5 266.081H271.5L271.84 262.471C274.146 261.987 276.341 261.075 278.31 259.781L281.11 262.101L286.06 257.101L283.74 254.311C285.032 252.341 285.945 250.146 286.43 247.841L290.04 247.501V240.501L286.43 240.161C285.947 237.855 285.034 235.66 283.74 233.691L286.06 230.891L281.11 225.941L278.31 228.261C276.345 226.959 274.149 226.046 271.84 225.571L271.5 221.961H264.5L264.16 225.571C261.852 226.048 259.656 226.961 257.69 228.261L254.9 225.941L249.9 230.891L252.22 233.691C250.926 235.66 250.014 237.855 249.53 240.161L245.92 240.501ZM267.97 234.501C269.847 234.501 271.683 235.058 273.243 236.101C274.804 237.144 276.021 238.627 276.739 240.362C277.457 242.096 277.644 244.005 277.277 245.846C276.91 247.687 276.005 249.378 274.677 250.705C273.349 252.032 271.657 252.935 269.815 253.3C267.974 253.665 266.065 253.475 264.331 252.756C262.598 252.036 261.116 250.818 260.075 249.256C259.033 247.694 258.478 245.858 258.48 243.981C258.484 242.735 258.733 241.501 259.214 240.352C259.694 239.202 260.397 238.158 261.281 237.279C262.165 236.401 263.213 235.705 264.366 235.232C265.519 234.759 266.754 234.517 268 234.521L267.97 234.501Z" fill="white"/>
<path opacity="0.6" d="M233.69 268.263L227.81 262.383L219.78 264.543L217.62 272.573L223.5 278.453L231.54 276.303L233.69 268.263Z" fill="white"/>
<path opacity="0.8" d="M277.33 291.91L267.83 295.89L266.54 306.11L274.74 312.35L284.24 308.36L285.54 298.14L277.33 291.91Z" fill="white"/>
<path opacity="0.4" d="M273.87 247.41V240.59L267.97 237.18L262.06 240.59V247.41L267.97 250.82L273.87 247.41Z" fill="white"/>
<path d="M411.19 182.609L421.83 191.249C421.83 191.249 424.43 191.309 425.25 192.169C426.07 193.029 429.25 199.409 428.76 200.279C428.27 201.149 423.07 202.869 421.96 201.839C420.85 200.809 418.96 194.899 418.96 194.269L405.36 185.149L411.19 182.609Z" fill="#B97964"/>
<path d="M417.09 186.411L414.71 191.601C414.71 191.601 400.08 184.751 396.91 180.761C396.1 179.761 394.98 178.091 393.77 176.221C391.77 173.131 389.53 169.411 387.97 166.801C386.81 164.801 386.03 163.521 386.03 163.521L394.31 150.461C396.12 151.851 401.66 174.171 402.65 175.371C403.64 176.571 417.09 186.411 417.09 186.411Z" fill="#263238"/>
<path opacity="0.2" d="M393.77 176.221C391.77 173.131 389.53 169.411 387.97 166.801L391.82 157.301C391.82 157.301 393.91 168.201 393.77 176.221Z" fill="black"/>
<path d="M326.33 133.051L315.11 125.051C315.11 125.051 313.77 122.82 312.62 122.53C311.47 122.24 304.37 122.68 303.83 123.53C303.29 124.38 304.4 129.761 305.83 130.211C307.26 130.661 313.36 129.411 313.89 129.071L325.28 136.941L326.33 133.051Z" fill="#B97964"/>
<path d="M414.85 356.791L408.57 357.901L406 349.341L403.65 341.491L410.89 338.961L412.99 348.401L414.85 356.791Z" fill="#B97964"/>
<path opacity="0.2" d="M413.02 348.59L406.03 349.51L403.66 341.57L410.89 339L413.02 348.59Z" fill="black"/>
<path d="M372.94 356.952H366.57L365.52 348.402L364.57 340.422L372.14 339.262L372.57 348.642L372.94 356.952Z" fill="#B97964"/>
<path opacity="0.2" d="M372.57 349.211L365.52 348.901L364.57 340.661L372.14 339.391L372.57 349.211Z" fill="black"/>
<path d="M413.61 341.73L403.29 343.55C392.88 317.6 385.47 295.94 380.24 277.97C377.42 268.27 375.19 259.65 373.51 251.97L373.94 280.21V344H363.53C338.04 223 356.11 194.87 356.11 194.87L386.6 189.77C387.808 195.421 388.663 201.142 389.16 206.9L390.53 217L402.46 278.57L413.61 341.73Z" fill="#0166FE"/>
<path d="M401.68 342.271L414.48 338.031L414.3 343.471L403.72 346.851L401.68 342.271Z" fill="#0166FE"/>
<path opacity="0.6" d="M401.68 342.271L414.48 338.031L414.3 343.471L403.72 346.851L401.68 342.271Z" fill="white"/>
<path d="M362.17 342.86L375.51 340.91L374.39 346.24L363.38 347.73L362.17 342.86Z" fill="#0166FE"/>
<path opacity="0.6" d="M362.17 342.86L375.51 340.91L374.39 346.24L363.38 347.73L362.17 342.86Z" fill="white"/>
<path opacity="0.2" d="M381.65 282.718C381.17 281.108 380.65 279.528 380.2 277.968C377.65 269.168 375.94 261.248 373.94 254.148L372.94 241.068C372.94 241.068 379.46 226.698 377.02 216.578C377.25 217.158 381.56 228.178 379.87 239.178C379.475 253.715 380.069 268.262 381.65 282.718Z" fill="black"/>
<path d="M382.52 137.334C382.439 137.394 382.352 137.444 382.26 137.484C380.976 138.214 379.564 138.689 378.1 138.884C373.85 139.294 371.1 138.364 369.5 136.254C367.29 133.114 367.29 128.064 368.43 122.124C368.804 119.744 369.553 117.439 370.65 115.294C370.65 115.294 370.65 115.214 370.65 115.194C370.65 115.174 370.73 115.024 370.78 114.954C371.452 113.753 372.413 112.739 373.576 112.004C374.739 111.269 376.067 110.836 377.44 110.744C378.636 110.636 379.839 110.656 381.03 110.804C392.76 112.204 392.35 131.824 382.52 137.334Z" fill="#B97964"/>
<path opacity="0.2" d="M382.26 137.48C380.973 138.157 379.567 138.578 378.12 138.72C373.87 139.13 371.12 138.06 369.54 135.93C371.932 136.86 374.562 136.983 377.03 136.28C377.936 136.069 378.877 136.068 379.784 136.276C380.69 136.484 381.537 136.896 382.26 137.48Z" fill="black"/>
<path d="M383.13 147.002C384.18 150.272 379.99 152.052 379.99 152.052C372.62 149.732 370.94 146.052 370.94 146.052C376.54 142.392 373.94 133.852 373.94 133.852L375.2 134.332L383.78 135.152C383.78 135.152 381.89 139.862 381.68 140.922C380.65 146.542 383.13 147.002 383.13 147.002Z" fill="#B97964"/>
<path d="M370.65 115.212C370.65 115.212 368.94 123.322 376.24 127.852C376.24 127.852 378.47 136.792 383.36 137.552C390.03 138.552 397.17 129.842 396.11 119.842C394.74 106.872 375.82 103.372 370.65 115.212Z" fill="#263238"/>
<path d="M372.62 124.997C372.79 123.717 374.09 121.707 376.04 122.257C377.99 122.807 378.54 128.037 373.34 128.517C372.59 128.577 372.26 127.647 372.62 124.997Z" fill="#B97964"/>
<path d="M365.89 355.736H373C373.147 355.739 373.289 355.791 373.403 355.883C373.517 355.975 373.597 356.103 373.63 356.246L375.09 362.846C375.149 363.128 375.094 363.423 374.937 363.665C374.779 363.906 374.532 364.076 374.25 364.136C374.171 364.146 374.09 364.146 374.01 364.136C371.09 364.086 370.86 363.906 367.2 363.906C364.95 363.906 358.2 364.146 355.05 364.146C351.9 364.146 351.53 361.076 352.8 360.786C358.51 359.546 362.8 357.786 364.64 356.176C364.985 355.874 365.432 355.716 365.89 355.736Z" fill="#263238"/>
<path d="M363.44 357C362.939 357.04 362.439 356.91 362.02 356.631C361.879 356.52 361.77 356.373 361.705 356.206C361.64 356.039 361.621 355.857 361.65 355.68C361.649 355.579 361.677 355.479 361.73 355.392C361.783 355.306 361.859 355.236 361.95 355.19C362.77 354.77 365.17 356.19 365.43 356.41C365.461 356.426 365.486 356.451 365.502 356.482C365.518 356.512 365.524 356.546 365.52 356.58C365.514 356.616 365.497 356.649 365.472 356.676C365.448 356.703 365.416 356.722 365.38 356.731C364.746 356.891 364.095 356.981 363.44 357ZM362.34 355.47C362.265 355.451 362.186 355.451 362.11 355.47C362.11 355.47 362.01 355.54 362 355.68C361.986 355.797 362 355.915 362.042 356.025C362.084 356.135 362.152 356.233 362.24 356.31C363.071 356.69 364.015 356.74 364.88 356.451C364.101 355.979 363.239 355.66 362.34 355.511V355.47Z" fill="#0166FE"/>
<path d="M365.34 356.779H365.25C364.49 356.369 363.01 354.779 363.16 353.949C363.186 353.818 363.257 353.699 363.362 353.615C363.466 353.531 363.596 353.487 363.73 353.489C363.863 353.476 363.996 353.49 364.123 353.529C364.251 353.569 364.368 353.633 364.47 353.719C365.33 354.409 365.47 356.539 365.47 356.649C365.468 356.681 365.458 356.711 365.443 356.739C365.427 356.766 365.406 356.79 365.38 356.809C365.365 356.802 365.352 356.791 365.34 356.779ZM363.85 353.779H363.76C363.54 353.779 363.52 353.919 363.51 353.959C363.41 354.439 364.36 355.679 365.12 356.249C365.067 355.405 364.761 354.596 364.24 353.929C364.132 353.832 363.995 353.776 363.85 353.769V353.779Z" fill="#0166FE"/>
<path d="M408.33 355.736H415.44C415.588 355.735 415.731 355.785 415.846 355.878C415.961 355.971 416.04 356.101 416.07 356.246L417.54 362.846C417.569 362.986 417.571 363.131 417.544 363.272C417.517 363.413 417.462 363.547 417.383 363.667C417.304 363.787 417.202 363.89 417.083 363.971C416.964 364.051 416.831 364.107 416.69 364.136C416.61 364.145 416.53 364.145 416.45 364.136C413.54 364.086 413.3 363.906 409.65 363.906C407.4 363.906 400.65 364.146 397.49 364.146C394.33 364.146 393.98 361.076 395.25 360.786C400.96 359.546 405.25 357.786 407.08 356.176C407.426 355.875 407.873 355.718 408.33 355.736Z" fill="#263238"/>
<path d="M405.88 357C405.379 357.042 404.878 356.911 404.46 356.631C404.319 356.52 404.21 356.373 404.145 356.206C404.08 356.039 404.061 355.857 404.09 355.68C404.088 355.579 404.115 355.478 404.168 355.391C404.221 355.304 404.299 355.235 404.39 355.19C405.21 354.77 407.6 356.19 407.87 356.41C407.9 356.427 407.924 356.452 407.938 356.483C407.952 356.513 407.957 356.547 407.95 356.58C407.946 356.615 407.931 356.648 407.908 356.675C407.885 356.702 407.854 356.721 407.82 356.731C407.185 356.89 406.535 356.98 405.88 357ZM404.78 355.47C404.705 355.451 404.626 355.451 404.55 355.47C404.5 355.47 404.45 355.54 404.44 355.68C404.424 355.796 404.436 355.914 404.476 356.024C404.516 356.134 404.583 356.233 404.67 356.31C405.501 356.69 406.444 356.74 407.31 356.451C406.535 355.977 405.676 355.658 404.78 355.511V355.47Z" fill="#0166FE"/>
<path d="M407.77 356.78H407.69C406.92 356.37 405.44 354.78 405.6 353.95C405.626 353.82 405.695 353.703 405.798 353.619C405.9 353.536 406.028 353.49 406.16 353.49C406.294 353.476 406.43 353.489 406.559 353.528C406.688 353.568 406.807 353.633 406.91 353.72C407.76 354.41 407.91 356.54 407.91 356.65C407.909 356.681 407.902 356.711 407.888 356.739C407.874 356.767 407.854 356.791 407.83 356.81C407.808 356.804 407.788 356.794 407.77 356.78ZM406.28 353.78H406.2C405.97 353.78 405.95 353.92 405.94 353.96C405.85 354.44 406.79 355.68 407.56 356.25C407.507 355.406 407.2 354.597 406.68 353.93C406.569 353.832 406.428 353.775 406.28 353.77V353.78Z" fill="#0166FE"/>
<path d="M356.11 194.931C356.11 194.931 350.29 159.491 360.29 143.591C360.29 143.591 380.29 142.351 394.29 150.461C394.29 150.461 388.48 166.241 387.62 194.931H356.11Z" fill="#263238"/>
<path opacity="0.2" d="M354.29 167.813C353.86 163.003 355.29 158.373 355.49 154.293C357.991 152.084 360.199 149.563 362.06 146.793C362.06 146.793 363.88 161.153 354.29 167.813Z" fill="black"/>
<path d="M362.76 143.521C362.76 143.521 343 141.211 340 140.001C338.14 139.211 323.59 129.711 323.59 129.711L320.18 134.791C320.18 134.791 335.07 146.791 337.58 148.191C343.48 151.431 356.75 156.001 356.75 156.001C356.75 156.001 364.75 150.391 362.76 143.521Z" fill="#263238"/>
<path d="M391.82 113.449C391.82 113.449 398.61 107.669 405.35 111.299C412.09 114.929 404.24 128.919 406.21 133.209C408.18 137.499 412.45 137.209 407.06 139.999C401.67 142.789 406.89 145.159 406.89 145.159C406.89 145.159 402.07 146.799 401.67 142.819C401.27 138.839 399.53 135.569 397.97 134.889C396.41 134.209 400.62 126.669 399.16 122.939C397.7 119.209 393.47 119.519 393.47 119.519L391.82 113.449Z" fill="#263238"/>
<path d="M381.06 110.8C381.06 110.8 372.5 105.44 368.47 109.25C362.25 115.14 371.12 123.6 380.47 127.61L381.06 110.8Z" fill="#263238"/>
<path d="M199.53 219.187L129.39 141.087C130.701 138.241 131.203 135.088 130.842 131.975C130.481 128.862 129.27 125.908 127.342 123.437C125.414 120.966 122.844 119.073 119.912 117.965C116.98 116.858 113.8 116.578 110.72 117.157C110.506 117.192 110.305 117.284 110.138 117.424C109.972 117.563 109.847 117.746 109.776 117.951C109.705 118.156 109.692 118.377 109.736 118.589C109.781 118.802 109.882 118.998 110.03 119.157L119.23 129.407C119.407 129.603 119.529 129.842 119.584 130.1C119.638 130.359 119.623 130.627 119.54 130.877L117.54 136.987C117.457 137.237 117.31 137.461 117.113 137.636C116.917 137.812 116.678 137.933 116.42 137.987L110.13 139.317C109.871 139.371 109.603 139.356 109.352 139.273C109.101 139.191 108.876 139.044 108.7 138.847L99.5 128.607C99.3549 128.46 99.174 128.352 98.975 128.295C98.776 128.238 98.5656 128.233 98.3643 128.282C98.163 128.33 97.9776 128.43 97.8261 128.571C97.6747 128.712 97.5623 128.89 97.5 129.087C96.5946 132.087 96.5322 135.278 97.3196 138.31C98.107 141.343 99.7139 144.1 101.964 146.28C104.215 148.46 107.021 149.979 110.077 150.67C113.133 151.361 116.321 151.197 119.29 150.197L189.43 228.297C188.12 231.143 187.618 234.295 187.979 237.407C188.34 240.519 189.549 243.472 191.476 245.942C193.402 248.413 195.971 250.306 198.902 251.414C201.832 252.523 205.011 252.804 208.09 252.227C208.305 252.194 208.507 252.103 208.675 251.964C208.842 251.825 208.969 251.643 209.041 251.438C209.113 251.232 209.127 251.011 209.083 250.798C209.039 250.585 208.938 250.387 208.79 250.227L199.56 239.997C199.383 239.8 199.261 239.559 199.206 239.299C199.152 239.039 199.167 238.77 199.25 238.517L201.25 232.417C201.331 232.166 201.478 231.942 201.675 231.766C201.872 231.59 202.111 231.47 202.37 231.417L208.65 230.087C208.909 230.033 209.177 230.047 209.428 230.13C209.679 230.213 209.904 230.36 210.08 230.557L219.29 240.797C219.434 240.948 219.615 241.058 219.814 241.117C220.014 241.175 220.226 241.181 220.428 241.132C220.63 241.084 220.817 240.983 220.968 240.84C221.119 240.697 221.23 240.517 221.29 240.317C222.192 237.318 222.251 234.129 221.462 231.098C220.674 228.068 219.067 225.312 216.818 223.133C214.568 220.954 211.763 219.435 208.709 218.743C205.655 218.05 202.469 218.211 199.5 219.207L199.53 219.187Z" fill="#0166FE"/>
<path opacity="0.7" d="M199.53 219.187L129.39 141.087C130.701 138.241 131.203 135.088 130.842 131.975C130.481 128.862 129.27 125.908 127.342 123.437C125.414 120.966 122.844 119.073 119.912 117.965C116.98 116.858 113.8 116.578 110.72 117.157C110.506 117.192 110.305 117.284 110.138 117.424C109.972 117.563 109.847 117.746 109.776 117.951C109.705 118.156 109.692 118.377 109.736 118.589C109.781 118.802 109.882 118.998 110.03 119.157L119.23 129.407C119.407 129.603 119.529 129.842 119.584 130.1C119.638 130.359 119.623 130.627 119.54 130.877L117.54 136.987C117.457 137.237 117.31 137.461 117.113 137.636C116.917 137.812 116.678 137.933 116.42 137.987L110.13 139.317C109.871 139.371 109.603 139.356 109.352 139.273C109.101 139.191 108.876 139.044 108.7 138.847L99.5 128.607C99.3549 128.46 99.174 128.352 98.975 128.295C98.776 128.238 98.5656 128.233 98.3643 128.282C98.163 128.33 97.9776 128.43 97.8261 128.571C97.6747 128.712 97.5623 128.89 97.5 129.087C96.5946 132.087 96.5322 135.278 97.3196 138.31C98.107 141.343 99.7139 144.1 101.964 146.28C104.215 148.46 107.021 149.979 110.077 150.67C113.133 151.361 116.321 151.197 119.29 150.197L189.43 228.297C188.12 231.143 187.618 234.295 187.979 237.407C188.34 240.519 189.549 243.472 191.476 245.942C193.402 248.413 195.971 250.306 198.902 251.414C201.832 252.523 205.011 252.804 208.09 252.227C208.305 252.194 208.507 252.103 208.675 251.964C208.842 251.825 208.969 251.643 209.041 251.438C209.113 251.232 209.127 251.011 209.083 250.798C209.039 250.585 208.938 250.387 208.79 250.227L199.56 239.997C199.383 239.8 199.261 239.559 199.206 239.299C199.152 239.039 199.167 238.77 199.25 238.517L201.25 232.417C201.331 232.166 201.478 231.942 201.675 231.766C201.872 231.59 202.111 231.47 202.37 231.417L208.65 230.087C208.909 230.033 209.177 230.047 209.428 230.13C209.679 230.213 209.904 230.36 210.08 230.557L219.29 240.797C219.434 240.948 219.615 241.058 219.814 241.117C220.014 241.175 220.226 241.181 220.428 241.132C220.63 241.084 220.817 240.983 220.968 240.84C221.119 240.697 221.23 240.517 221.29 240.317C222.192 237.318 222.251 234.129 221.462 231.098C220.674 228.068 219.067 225.312 216.818 223.133C214.568 220.954 211.763 219.435 208.709 218.743C205.655 218.05 202.469 218.211 199.5 219.207L199.53 219.187Z" fill="white"/>
<path d="M120.29 127.156C120.29 127.156 99.4599 129.886 96.7599 133.596C94.0599 137.306 93.9099 140.756 106.22 144.296L109.83 141.666C109.83 141.666 104.72 139.716 105.32 138.516C105.92 137.316 120.32 137.766 120.32 137.766L120.29 127.156Z" fill="#E4897B"/>
<path d="M128.11 126.891L125.21 137.001L120.34 137.741L110.14 139.291L109.84 135.211L109.25 127.151C109.25 127.151 119.27 125.141 128.11 126.891Z" fill="#0166FE"/>
<path opacity="0.2" d="M123 131.168L120.37 137.748L110.17 139.298L109.87 135.218C115 131.188 123 131.168 123 131.168Z" fill="black"/>
<path d="M120.97 356.73L129.07 357.58L129.49 352.88L130.59 340.09L122.48 339.23L121.25 353.36L120.97 356.73Z" fill="#E4897B"/>
<path d="M80.48 355.699H88.34L88.42 353.919V353.699L88.83 342.299V342.069L89 337.699H81.13L80.48 355.699Z" fill="#E4897B"/>
<path opacity="0.2" d="M122.48 339.23L121.25 353.36L129.49 352.88L130.59 340.09L122.48 339.23Z" fill="black"/>
<path opacity="0.2" d="M80.5298 354.699H80.5498L88.4198 353.699L88.8298 342.699L80.9398 343.329L80.5498 354.359L80.5298 354.699Z" fill="black"/>
<path d="M89.4299 355.228H79.8799C79.7231 355.227 79.5707 355.28 79.4486 355.379C79.3265 355.477 79.2422 355.615 79.2099 355.768L77.6599 362.768C77.5978 363.069 77.6577 363.382 77.8265 363.639C77.9952 363.896 78.259 364.076 78.5599 364.138C78.6429 364.148 78.7268 364.148 78.8099 364.138C81.8999 364.088 84.1499 363.898 88.0299 363.898C90.4199 363.898 97.6299 364.148 100.93 364.148C104.23 364.148 104.66 360.888 103.31 360.588C97.2499 359.268 92.6899 357.438 90.7499 355.698C90.3869 355.377 89.914 355.209 89.4299 355.228Z" fill="#263238"/>
<path d="M129.93 354.998H120.38C120.223 354.997 120.071 355.05 119.948 355.148C119.826 355.247 119.742 355.384 119.71 355.538L118.16 362.538C118.098 362.839 118.158 363.152 118.326 363.409C118.495 363.666 118.759 363.845 119.06 363.908C119.143 363.917 119.227 363.917 119.31 363.908C122.4 363.858 124.65 363.668 128.53 363.668C130.92 363.668 138.13 363.918 141.43 363.918C144.73 363.918 145.16 360.658 143.81 360.358C137.75 359.038 133.19 357.208 131.25 355.468C130.887 355.147 130.414 354.978 129.93 354.998Z" fill="#263238"/>
<path d="M131.34 351.699H119.81C119.81 351.699 116.5 251.999 104 218.499C105.53 280.829 90.84 352.699 90.84 352.699H79.48C79.48 352.699 84.69 296.429 84.69 271.819C84.69 228.209 72.69 206.919 84.37 178.699H126.09C136.31 240.249 140.24 283.699 131.34 351.699Z" fill="#263238"/>
<path d="M132.63 348.449L132.07 351.699H118.44V348.699L132.63 348.449Z" fill="#0166FE"/>
<path d="M92.1799 349.699L90.8699 352.699H79.4399L78.6899 349.699H92.1799Z" fill="#0166FE"/>
<path d="M162 130.55C161.69 130.8 161.38 131.03 161.06 131.24C159.227 132.476 157.06 133.121 154.85 133.09C154.291 133.084 153.732 133.037 153.18 132.95C151.054 132.631 149.089 131.628 147.584 130.092C146.08 128.557 145.116 126.573 144.84 124.44C144.05 118.9 146.84 115.27 151.14 108.76C152.112 107.222 153.462 105.959 155.061 105.09C156.66 104.222 158.454 103.777 160.273 103.798C162.093 103.819 163.877 104.305 165.455 105.211C167.033 106.116 168.353 107.41 169.29 108.97C173.6 116 167.55 125.93 162 130.55Z" fill="#E4897B"/>
<path opacity="0.2" d="M154.88 133.087C154.321 133.08 153.762 133.033 153.21 132.947C151.752 132.727 150.362 132.185 149.141 131.36C147.919 130.535 146.897 129.447 146.15 128.177C146.984 127.633 147.885 127.199 148.83 126.887C151.4 128.33 153.5 130.482 154.88 133.087Z" fill="black"/>
<path d="M136.31 131.869C137.31 136.949 145.62 141.499 145.62 141.499C145.62 141.499 151.28 143.699 151.38 141.499C148.94 138.989 148.56 136.699 149.23 134.629C149.691 133.38 150.394 132.235 151.3 131.259C151.78 130.698 152.294 130.167 152.84 129.669L148.64 115.859C146.48 121.319 141.77 130.809 136.31 131.869Z" fill="#E4897B"/>
<path d="M172.79 109.917C171.94 105.177 169.54 104.917 169.54 104.917C169.31 101.137 160.39 97.3173 154.54 98.5473C148.69 99.7773 144.72 104.927 143.12 109.667C140.8 116.577 142.2 125.147 142.2 125.147C146.93 128.747 151.85 129.407 153.34 126.747C154.83 124.087 158.53 123.167 158.53 123.167C160.78 125.117 164.34 123.167 164.34 123.167C164.34 123.167 168.34 121.777 169.07 117.837C169.8 113.897 173.5 113.917 172.79 109.917Z" fill="#263238"/>
<path d="M158.37 120.995C158.047 121.669 157.879 122.407 157.879 123.155C157.879 123.903 158.047 124.641 158.37 125.315C159.24 126.795 161.37 125.625 162.61 123.605C163.67 121.815 164.55 118.835 162.96 118.135C161.37 117.435 159.17 118.995 158.37 120.995Z" fill="#E4897B"/>
<path d="M159.39 98.5388C168.16 95.9288 175.22 110.319 174.88 117.949C174.59 124.149 168.08 123.399 168.08 123.399C168.08 123.399 171.68 123.159 171.33 118.809C171.33 118.809 169.77 124.139 166.28 120.639C162.79 117.139 166.93 108.799 166.93 108.799L159.39 98.5388Z" fill="#263238"/>
<path opacity="0.2" d="M103.07 259.25C102.092 249.587 100.62 239.982 98.6599 230.47C86.8499 215.63 93.2999 201.93 93.2999 201.93C94.8799 211.46 104 218.5 104 218.5C104.36 231.91 103.94 245.76 103.07 259.25Z" fill="black"/>
<path d="M136.29 129.588C136.29 129.588 138.82 127.708 143.51 130.478C146.445 132.378 148.64 135.226 149.73 138.548L136.29 129.588Z" fill="#0166FE"/>
<path d="M130.59 198.377C130.59 198.377 130.59 174.047 156.03 144.597C156.03 144.597 144.61 128.657 128.11 126.887C128.11 126.887 97.6498 137.337 81.0598 181.887L130.59 198.377Z" fill="#0166FE"/>
<path opacity="0.6" d="M156 144.599C153.333 147.719 150.917 150.772 148.75 153.759C144.955 158.983 141.61 164.52 138.75 170.309C130.57 186.969 130.57 198.379 130.57 198.379L81.03 181.879C97.62 137.339 128.08 126.879 128.08 126.879C144.61 128.659 156 144.599 156 144.599Z" fill="white"/>
<path d="M130.9 194.892C130.79 195.712 130.72 196.392 130.68 196.892L81.7299 180.122C81.9699 179.492 82.2199 178.872 82.4699 178.262L130.9 194.892Z" fill="#0166FE"/>
<path d="M131.76 189.94C131.61 190.65 131.47 191.31 131.36 191.94C114.36 185.39 95.09 178.08 84.16 174.3C84.43 173.68 84.71 173.08 84.99 172.48C97.18 176.67 118.28 184.73 131.76 189.94Z" fill="#0166FE"/>
<path d="M133.05 184.921C132.85 185.591 132.67 186.241 132.5 186.861C119 181.001 98.75 172.491 86.89 168.571C87.2 167.961 87.51 167.371 87.82 166.781C99.9 170.801 119.74 179.151 133.05 184.921Z" fill="#0166FE"/>
<path d="M134.72 179.792C134.49 180.452 134.26 181.092 134.05 181.712C120.91 175.372 102.05 166.712 89.9299 163.002C90.2699 162.402 90.6199 161.812 90.9299 161.242C103.31 165.062 121.75 173.532 134.72 179.792Z" fill="#0166FE"/>
<path d="M136.79 174.618C136.51 175.248 136.25 175.868 136.01 176.488C123.44 169.768 106.01 161.128 93.2899 157.578C93.6799 156.988 94.0799 156.398 94.4799 155.828C107.35 159.538 124.41 167.998 136.79 174.618Z" fill="#0166FE"/>
<path d="M139.23 169.386C138.92 170.006 138.62 170.626 138.33 171.236C126.51 164.236 110.43 155.776 97.0398 152.296C97.4798 151.706 97.9198 151.136 98.3698 150.566C111.86 154.226 127.59 162.516 139.23 169.386Z" fill="#0166FE"/>
<path d="M142 164.167C141.65 164.777 141.32 165.378 141 165.968C130 158.888 115.22 150.648 101.21 147.128C101.71 146.548 102.21 145.988 102.73 145.438C116.78 149.128 131.25 157.177 142 164.167Z" fill="#0166FE"/>
<path d="M145.16 159.058C144.79 159.618 144.44 160.178 144.09 160.738C134.01 153.648 120.39 145.738 105.96 142.108C106.53 141.548 107.09 141.008 107.65 140.488C121.88 144.288 135.22 152.078 145.16 159.058Z" fill="#0166FE"/>
<path d="M148.64 153.998L147.49 155.618C138.34 148.618 125.86 141.048 111.33 137.288C111.99 136.748 112.63 136.228 113.26 135.738C127.45 139.638 139.63 147.068 148.64 153.998Z" fill="#0166FE"/>
<path d="M152.45 148.918C152.03 149.448 151.62 149.968 151.22 150.498C141.364 142.231 129.878 136.132 117.51 132.598C118.28 132.078 119.02 131.598 119.73 131.168C131.709 134.849 142.833 140.883 152.45 148.918Z" fill="#0166FE"/>
<path d="M156 144.595L155.21 145.525C146.424 137.673 136.048 131.806 124.79 128.325C126.02 127.715 126.95 127.325 127.5 127.105C136.81 130.253 145.492 135.016 153.15 141.175C154.162 142.262 155.113 143.404 156 144.595Z" fill="#0166FE"/>
<path opacity="0.2" d="M148.78 153.76C144.985 158.984 141.64 164.521 138.78 170.31C138.717 166.525 139.514 162.776 141.111 159.344C142.708 155.913 145.064 152.889 148 150.5L148.78 153.76Z" fill="black"/>
<path d="M156 152.121V183.001L168 204.421L172.91 209.891C172.91 209.891 167.17 213.431 165.59 211.161C164.313 209.026 163.254 206.768 162.43 204.421C162.43 204.421 150.57 188.491 148.71 184.691C146.85 180.891 146.18 157.881 146.18 157.881L156 152.121Z" fill="#E4897B"/>
<path d="M156 144.598C157.88 149.798 157.87 167.518 157.87 167.518L144.54 168.688L143.48 161.688C143.799 157.139 145.386 152.771 148.06 149.078C148.992 147.813 150.182 146.76 151.55 145.987C152.919 145.215 154.435 144.742 156 144.598Z" fill="#0166FE"/>
</svg>
