<svg width="120" height="108" viewBox="0 0 120 108" fill="none" xmlns="http://www.w3.org/2000/svg">
<path d="M59.812 107.093C92.8453 107.093 119.624 105.53 119.624 103.601C119.624 101.673 92.8453 100.109 59.812 100.109C26.7788 100.109 0 101.673 0 103.601C0 105.53 26.7788 107.093 59.812 107.093Z" fill="#353535" fill-opacity="0.2"/>
<path d="M95.3351 25.17C95.767 26.6168 97.9942 29.3253 98.1701 31.2965C98.3459 33.2678 94.5485 36.4205 94.5485 36.4205C94.5485 36.4205 91.7104 26.9315 93.4873 25.824C95.2642 24.7166 95.3351 25.17 95.3351 25.17Z" fill="#263238"/>
<path d="M87.5362 35.4231C86.8637 35.9845 86.2036 36.4565 85.5156 36.9408C84.8277 37.4251 84.1182 37.8663 83.3963 38.2796C82.6719 38.7083 81.9253 39.0986 81.1598 39.4488C80.7711 39.6246 80.3855 39.7974 79.9845 39.9485C79.7871 40.0288 79.5866 40.1059 79.383 40.1737L78.766 40.3897C78.2385 40.5372 77.6866 40.577 77.1434 40.5069C76.6893 40.4538 76.2397 40.3672 75.7984 40.2478C74.9757 40.0201 74.1706 39.7335 73.3891 39.3902C71.8721 38.7278 70.4086 37.9492 69.0117 37.0611L69.5886 35.9876C70.3166 36.2961 71.0631 36.6046 71.8035 36.873C72.5439 37.1413 73.2904 37.4251 74.0369 37.6565C74.7647 37.895 75.5065 38.0887 76.258 38.2365C76.6031 38.3039 76.9526 38.3462 77.3038 38.3629C77.5656 38.3832 77.829 38.3561 78.0812 38.2827C78.785 38.0134 79.473 37.7045 80.1418 37.3573C80.4843 37.1784 80.8236 36.9964 81.1567 36.7989C81.4899 36.6015 81.8292 36.4102 82.1593 36.2066C82.8226 35.7963 83.4704 35.3614 84.112 34.9141C84.7537 34.4668 85.3922 33.9886 85.9629 33.5352L87.5362 35.4231Z" fill="#E58A7B"/>
<path d="M89.1649 32.1392C88.3998 31.5408 85.2348 33.4996 84.2754 34.3171L84.9757 38.5526C84.9757 38.5526 89.5258 36.6462 89.7973 35.3444C90.0842 33.984 89.7356 32.5958 89.1649 32.1392Z" fill="#407BFF"/>
<path opacity="0.2" d="M89.1649 32.1392C88.3998 31.5408 85.2348 33.4996 84.2754 34.3171L84.9757 38.5526C84.9757 38.5526 89.5258 36.6462 89.7973 35.3444C90.0842 33.984 89.7356 32.5958 89.1649 32.1392Z" fill="black"/>
<path d="M99.81 44.9563L90.2038 46.8288C85.2402 33.3882 86.3199 32.947 86.3199 32.947C87.018 32.5634 87.7392 32.2235 88.4793 31.929L88.6089 31.8797C89.2259 31.6545 89.3493 31.6205 90.1698 31.3799C91.5827 31.0437 92.8999 30.763 94.5318 30.5316L94.8403 30.4884C95.1488 30.4514 95.4295 30.4205 95.7133 30.3928C95.9045 30.3712 96.0958 30.3588 96.2778 30.3465L96.8948 30.3126C97.9498 30.2601 98.7056 30.2756 98.7056 30.2756C98.4125 38.6694 98.8876 41.0787 99.81 44.9563Z" fill="#407BFF"/>
<path opacity="0.2" d="M99.81 44.9563L90.2038 46.8288C85.2402 33.3882 86.3199 32.947 86.3199 32.947C87.018 32.5634 87.7392 32.2235 88.4793 31.929L88.6089 31.8797C89.2259 31.6545 89.3493 31.6205 90.1698 31.3799C91.5827 31.0437 92.8999 30.763 94.5318 30.5316L94.8403 30.4884C95.1488 30.4514 95.4295 30.4205 95.7133 30.3928C95.9045 30.3712 96.0958 30.3588 96.2778 30.3465L96.8948 30.3126C97.9498 30.2601 98.7056 30.2756 98.7056 30.2756C98.4125 38.6694 98.8876 41.0787 99.81 44.9563Z" fill="black"/>
<path d="M92.2851 26.1389C91.6681 27.16 93.9046 27.632 95.228 26.5862C96.2861 25.7472 96.0363 23.8099 95.1293 23.3595C94.2224 22.9091 92.2851 26.1389 92.2851 26.1389Z" fill="#407BFF"/>
<path opacity="0.4" d="M92.2851 26.1389C91.6681 27.16 93.9046 27.632 95.228 26.5862C96.2861 25.7472 96.0363 23.8099 95.1293 23.3595C94.2224 22.9091 92.2851 26.1389 92.2851 26.1389Z" fill="black"/>
<path d="M101.636 100.586L99.2327 100.765L98.3535 95.2336L100.757 95.0547L101.636 100.586Z" fill="#E58A7B"/>
<path d="M118.635 92.8564L116.596 94.1397L112.965 89.8332L115.004 88.5469L118.635 92.8564Z" fill="#E58A7B"/>
<path d="M98.3535 95.2344L98.8409 98.3069L101.21 97.909L100.76 95.0586L98.3535 95.2344Z" fill="#CF6F64"/>
<path d="M115.007 88.5508L112.965 89.8341L114.47 91.6171L116.556 90.3863L115.007 88.5508Z" fill="#CF6F64"/>
<path d="M90.3516 46.8267C90.3516 46.8267 90.3177 65.8972 91.8755 73.0787C93.4982 80.5502 98.2704 97.5477 98.2704 97.5477L101.732 97.1004C101.732 97.1004 99.0262 79.9302 97.8725 72.5049C96.6169 64.4134 97.3881 45.457 97.3881 45.457L90.3516 46.8267Z" fill="#407BFF"/>
<path opacity="0.7" d="M90.3516 46.8267C90.3516 46.8267 90.3177 65.8972 91.8755 73.0787C93.4982 80.5502 98.2704 97.5477 98.2704 97.5477L101.732 97.1004C101.732 97.1004 99.0262 79.9302 97.8725 72.5049C96.6169 64.4134 97.3881 45.457 97.3881 45.457L90.3516 46.8267Z" fill="black"/>
<path opacity="0.5" d="M97.1732 53.9092L95.4766 52.2188C95.5413 59.5453 95.9516 63.1638 97.3614 67.1062C97.1393 62.9386 97.1208 58.009 97.1732 53.9092Z" fill="black"/>
<path d="M92.7383 46.336C92.7383 46.336 97.9116 62.0964 100.478 71.1751C103.187 80.7536 113.57 91.3469 113.57 91.3469L116.55 89.6256C116.55 89.6256 109.455 79.569 106.845 70.6322C101.539 52.4902 103.72 48.6465 99.8057 44.957L92.7383 46.336Z" fill="#407BFF"/>
<path opacity="0.7" d="M92.7383 46.336C92.7383 46.336 97.9116 62.0964 100.478 71.1751C103.187 80.7536 113.57 91.3469 113.57 91.3469L116.55 89.6256C116.55 89.6256 109.455 79.569 106.845 70.6322C101.539 52.4902 103.72 48.6465 99.8057 44.957L92.7383 46.336Z" fill="black"/>
<path d="M88.6748 20.5742C90.0507 21.0339 91.3 24.4488 91.3525 25.7938C91.4049 27.1388 87.3669 28.9928 87.3669 28.9928C87.3669 28.9928 85.5869 24.674 86.0836 21.8976C86.2995 20.6914 88.6748 20.5742 88.6748 20.5742Z" fill="#263238"/>
<path d="M69.7906 36.1011L68.1587 34.3242L67.625 36.5515C67.625 36.5515 68.7849 37.5756 69.7227 37.224L69.7906 36.1011Z" fill="#E58A7B"/>
<path d="M66.5066 33.8164L65.3652 34.7234L67.6264 36.5527L68.1601 34.3254L66.5066 33.8164Z" fill="#E58A7B"/>
<path d="M115.956 93.6817L117.862 91.7599C117.895 91.727 117.939 91.707 117.985 91.7036C118.032 91.7002 118.078 91.7136 118.115 91.7413L119.852 93.0308C119.895 93.0645 119.93 93.107 119.956 93.1554C119.981 93.2038 119.996 93.2571 119.999 93.3116C120.002 93.3661 119.994 93.4207 119.974 93.4718C119.955 93.5228 119.925 93.5691 119.886 93.6077C119.207 94.2647 118.849 94.5486 118.01 95.3938C117.495 95.9151 116.795 96.7265 116.082 97.4452C115.37 98.164 114.62 97.4946 114.848 97.1367C115.888 95.511 115.703 94.9033 115.774 94.0766C115.785 93.9272 115.849 93.7869 115.956 93.6817Z" fill="#263238"/>
<path d="M99.0723 100.422H101.781C101.828 100.422 101.875 100.438 101.911 100.469C101.948 100.499 101.973 100.542 101.981 100.588L102.407 102.729C102.417 102.782 102.414 102.836 102.401 102.888C102.387 102.94 102.362 102.988 102.327 103.029C102.293 103.069 102.25 103.102 102.201 103.125C102.153 103.147 102.1 103.159 102.046 103.158C101.099 103.143 100.643 103.087 99.4518 103.087C98.7207 103.087 97.2091 103.161 96.1973 103.161C95.1854 103.161 95.0775 102.162 95.4939 102.072C97.3448 101.665 98.0698 101.107 98.6775 100.57C98.7876 100.476 98.9274 100.423 99.0723 100.422Z" fill="#263238"/>
<g style="mix-blend-mode:multiply" opacity="0.27">
<path d="M99.0159 35.1406L97.5352 36.0229L99.2442 42.4486C98.8709 40.5021 99.0375 38.3643 99.0159 35.1406Z" fill="#407BFF"/>
</g>
<path d="M90.6016 25.1071C91.6535 25.9863 93.1805 27.2665 94.979 25.7703C96.5214 24.4809 97.6011 21.0968 94.834 20.9734C93.3872 20.9086 90.6016 25.1071 90.6016 25.1071Z" fill="#263238"/>
<path d="M93.1452 25.707C93.1452 27.1631 93.3704 29.7883 94.5334 30.5348C94.5334 30.5348 94.4285 32.034 91.8187 32.54C88.9529 33.0983 90.1714 31.3831 90.1714 31.3831C91.6645 30.7045 91.4054 29.5507 90.9118 28.5142L93.1452 25.707Z" fill="#E58A7B"/>
<path d="M92.2344 26.8516L90.9141 28.5143C91.0297 28.7546 91.1247 29.0044 91.1979 29.2608C91.7778 29.0572 92.4719 28.2428 92.4133 27.6043C92.4006 27.3445 92.34 27.0893 92.2344 26.8516Z" fill="#CF6F64"/>
<path d="M93.2827 22.3661C93.5912 24.7383 93.7794 25.7348 92.8293 27.1692C91.401 29.3286 88.421 29.1898 87.4061 26.9594C86.4807 24.9512 86.1352 21.4067 88.2452 20.034C88.7092 19.7268 89.244 19.5435 89.7988 19.5015C90.3537 19.4595 90.91 19.5601 91.4149 19.7939C91.9199 20.0277 92.3566 20.3867 92.6835 20.837C93.0105 21.2872 93.2167 21.8136 93.2827 22.3661Z" fill="#E58A7B"/>
<path d="M89.1611 18.2107C87.5569 19.349 90.7744 19.6853 90.7775 21.3356C90.7775 22.0174 91.8973 24.1799 93.4891 24.0565L95.0315 21.3171C96.6541 18.695 92.8197 15.6102 89.1611 18.2107Z" fill="#263238"/>
<path d="M89.161 18.2101C86.3384 18.062 85.1075 20.3078 85.4314 22.3253C87.4005 21.8343 89.4373 21.6727 91.4592 21.8471C95.3276 22.242 89.161 18.2101 89.161 18.2101Z" fill="#263238"/>
<path d="M94.0538 24.4105C94.0929 24.871 93.9476 25.3281 93.6497 25.6814C93.2518 26.1472 92.7243 25.8727 92.5392 25.3205C92.3818 24.8208 92.4004 23.9786 92.9371 23.7133C93.0557 23.6585 93.1861 23.634 93.3164 23.6422C93.4468 23.6503 93.5731 23.6908 93.684 23.76C93.7948 23.8292 93.8866 23.9249 93.9512 24.0384C94.0158 24.152 94.051 24.2799 94.0538 24.4105Z" fill="#E58A7B"/>
<path d="M89.8547 23.7128C89.8918 23.904 89.8208 24.0768 89.6974 24.1014C89.574 24.1261 89.4414 23.9904 89.4043 23.793C89.3673 23.5955 89.4383 23.4259 89.5617 23.4012C89.6851 23.3765 89.8177 23.5215 89.8547 23.7128Z" fill="#263238"/>
<path d="M87.6985 24.1319C87.7355 24.3232 87.6646 24.499 87.5412 24.5237C87.4178 24.5484 87.2851 24.4126 87.2481 24.2152C87.2111 24.0178 87.282 23.8481 87.4054 23.8265C87.5288 23.8049 87.6615 23.9376 87.6985 24.1319Z" fill="#263238"/>
<path d="M87.4648 23.8292L86.9805 23.7891C86.9805 23.7891 87.2859 24.1006 87.4648 23.8292Z" fill="#263238"/>
<path d="M88.3348 24.3516C88.2482 24.8189 88.0988 25.2723 87.8906 25.6996C88.0012 25.7512 88.1218 25.7779 88.2438 25.7779C88.3659 25.7779 88.4864 25.7512 88.5971 25.6996L88.3348 24.3516Z" fill="#DF5753"/>
<path d="M89.4021 26.315C89.3889 26.3152 89.376 26.3106 89.3658 26.3022C89.3556 26.2937 89.3488 26.2818 89.3466 26.2687C89.3453 26.2614 89.3454 26.254 89.3471 26.2467C89.3487 26.2395 89.3517 26.2326 89.3561 26.2266C89.3604 26.2205 89.3658 26.2154 89.3722 26.2115C89.3785 26.2077 89.3855 26.2051 89.3929 26.204C89.6313 26.1625 89.8566 26.0655 90.0506 25.9208C90.2446 25.7761 90.4018 25.5878 90.5096 25.3711C90.5124 25.3642 90.5166 25.3579 90.5218 25.3526C90.5271 25.3474 90.5333 25.3432 90.5402 25.3403C90.5471 25.3374 90.5545 25.336 90.5619 25.3359C90.5694 25.3359 90.5767 25.3374 90.5836 25.3402C90.5905 25.343 90.5968 25.3472 90.602 25.3525C90.6073 25.3577 90.6115 25.364 90.6144 25.3708C90.6172 25.3777 90.6187 25.3851 90.6187 25.3925C90.6188 25.4 90.6173 25.4074 90.6145 25.4142C90.5015 25.6497 90.3335 25.8546 90.1246 26.0114C89.9157 26.1682 89.6721 26.2723 89.4145 26.315H89.4021Z" fill="#263238"/>
<path d="M90.3529 22.8932C90.3247 22.8935 90.2973 22.8837 90.2758 22.8654C90.172 22.7668 90.0464 22.6941 89.9091 22.6534C89.7718 22.6126 89.6269 22.605 89.4861 22.631C89.455 22.6388 89.4221 22.6339 89.3946 22.6174C89.3671 22.6009 89.3473 22.5742 89.3395 22.5431C89.3318 22.512 89.3367 22.4791 89.3532 22.4516C89.3696 22.4241 89.3964 22.4043 89.4275 22.3965C89.6054 22.3615 89.789 22.3693 89.9633 22.4192C90.1376 22.469 90.2976 22.5596 90.43 22.6834C90.4511 22.7048 90.463 22.7336 90.463 22.7636C90.463 22.7937 90.4511 22.8225 90.43 22.8438C90.4214 22.8571 90.4101 22.8683 90.3968 22.8768C90.3835 22.8854 90.3685 22.8909 90.3529 22.8932Z" fill="#263238"/>
<path d="M86.5049 23.3219C86.4907 23.3251 86.476 23.3251 86.4618 23.3219C86.4477 23.3162 86.4349 23.3077 86.4241 23.2969C86.4133 23.2862 86.4048 23.2734 86.3991 23.2593C86.3933 23.2452 86.3905 23.2301 86.3906 23.2149C86.3908 23.1997 86.394 23.1847 86.4001 23.1707C86.4657 23.002 86.5708 22.8515 86.7066 22.7318C86.8424 22.6121 87.0049 22.5267 87.1805 22.4828C87.1953 22.4797 87.2107 22.4797 87.2255 22.4827C87.2403 22.4857 87.2544 22.4918 87.2668 22.5004C87.2793 22.5091 87.2898 22.5202 87.2978 22.5331C87.3057 22.546 87.311 22.5604 87.3132 22.5754C87.3163 22.59 87.3164 22.6051 87.3136 22.6197C87.3108 22.6344 87.305 22.6483 87.2966 22.6607C87.2883 22.6731 87.2775 22.6837 87.265 22.6918C87.2525 22.6999 87.2384 22.7054 87.2237 22.708C87.0851 22.7458 86.9571 22.8154 86.85 22.9113C86.7429 23.0071 86.6596 23.1266 86.6067 23.2602C86.5968 23.2786 86.5822 23.2941 86.5643 23.3049C86.5464 23.3158 86.5259 23.3216 86.5049 23.3219Z" fill="#263238"/>
<path d="M115.241 94.7978C115.188 94.7964 115.136 94.7823 115.09 94.7565C115.043 94.7307 115.004 94.6941 114.975 94.6498C114.953 94.6237 114.939 94.5922 114.933 94.5587C114.927 94.5251 114.93 94.4905 114.941 94.4585C115.049 94.1685 115.901 93.9834 115.996 93.9618C116.007 93.9599 116.019 93.9612 116.029 93.9655C116.04 93.9699 116.049 93.9772 116.055 93.9865C116.061 93.9955 116.065 94.0063 116.065 94.0174C116.065 94.0284 116.061 94.0392 116.055 94.0482C115.888 94.3228 115.561 94.7824 115.256 94.7978H115.241ZM115.885 94.1037C115.549 94.1901 115.105 94.3443 115.049 94.4986C115.044 94.5128 115.043 94.5282 115.046 94.543C115.049 94.5579 115.057 94.5714 115.068 94.5819C115.087 94.6137 115.114 94.6399 115.147 94.6578C115.179 94.6757 115.216 94.6846 115.253 94.6837C115.416 94.6744 115.648 94.4616 115.885 94.1037Z" fill="#407BFF"/>
<path d="M115.746 94.1069C115.438 94.1069 115.052 94.0298 114.938 93.8632C114.913 93.8253 114.901 93.7799 114.905 93.7345C114.909 93.689 114.928 93.6463 114.96 93.6133C114.987 93.5789 115.021 93.5507 115.06 93.5305C115.099 93.5103 115.141 93.4985 115.185 93.4961H115.21C115.555 93.4961 116.03 93.9619 116.049 93.9804C116.056 93.9874 116.061 93.9962 116.064 94.006C116.067 94.0158 116.067 94.0262 116.064 94.0359C116.061 94.0455 116.056 94.0541 116.049 94.0612C116.042 94.0682 116.034 94.0733 116.024 94.076C115.933 94.0979 115.84 94.1083 115.746 94.1069ZM115.21 93.6102H115.191C115.163 93.6112 115.136 93.6183 115.112 93.6311C115.087 93.6439 115.066 93.6621 115.049 93.6843C115.006 93.7429 115.018 93.7768 115.034 93.7984C115.126 93.9403 115.598 94.0205 115.888 93.9866C115.703 93.798 115.467 93.6673 115.21 93.6102Z" fill="#407BFF"/>
<path d="M98.1885 100.845C97.981 100.864 97.7734 100.812 97.5993 100.697C97.5581 100.665 97.5258 100.623 97.5053 100.575C97.4848 100.527 97.4768 100.475 97.4821 100.423C97.4819 100.392 97.4897 100.361 97.5049 100.334C97.52 100.307 97.5419 100.285 97.5684 100.269C97.8522 100.102 98.8456 100.596 98.9566 100.651C98.9671 100.657 98.9756 100.665 98.9811 100.676C98.9866 100.686 98.9888 100.698 98.9875 100.71C98.986 100.721 98.9811 100.732 98.9734 100.741C98.9657 100.75 98.9556 100.756 98.9443 100.759C98.6956 100.811 98.4425 100.84 98.1885 100.845ZM97.7319 100.346C97.6957 100.343 97.6595 100.351 97.627 100.367C97.6166 100.373 97.6081 100.381 97.6025 100.392C97.597 100.402 97.5948 100.414 97.5962 100.426C97.5931 100.461 97.5985 100.496 97.612 100.528C97.6254 100.56 97.6465 100.589 97.6733 100.611C97.8276 100.744 98.2255 100.765 98.7499 100.679C98.4315 100.512 98.0875 100.399 97.7319 100.346Z" fill="#407BFF"/>
<path d="M98.9314 100.751H98.9098C98.6013 100.618 98.0059 100.094 98.0491 99.8253C98.0491 99.7636 98.1046 99.6834 98.2589 99.668H98.3051C98.8419 99.668 98.9807 100.649 98.9869 100.692C98.9883 100.702 98.987 100.713 98.9832 100.723C98.9795 100.732 98.9733 100.741 98.9653 100.748C98.9545 100.752 98.9427 100.753 98.9314 100.751ZM98.3144 99.7759H98.2805C98.1818 99.7759 98.1756 99.8222 98.1756 99.8346C98.1509 99.998 98.5581 100.408 98.8666 100.59C98.8049 100.35 98.6476 99.7821 98.3021 99.7821L98.3144 99.7759Z" fill="#407BFF"/>
<path d="M89.621 23.4104L89.1367 23.3672C89.1367 23.3672 89.4421 23.6818 89.621 23.4104Z" fill="#263238"/>
<path d="M91.7393 34.5951C86.5784 35.7457 88.1733 32.6239 88.4817 31.9359L88.6113 31.8866C89.2283 31.6614 89.3517 31.6275 90.1722 31.3868C91.6041 31.0003 93.0618 30.7168 94.5342 30.5385L94.8427 30.4953C95.1512 30.4552 95.4319 30.4244 95.7157 30.3997C95.907 30.3781 96.0982 30.3658 96.2802 30.3534L96.8972 30.3164C97.0021 30.7976 97.2581 33.3704 91.7393 34.5951Z" fill="#E58A7B"/>
<path d="M99.842 44.3637L100.443 45.1411C100.49 45.1997 100.425 45.283 100.314 45.3046L90.2388 47.2665C90.1525 47.285 90.0723 47.2665 90.0568 47.2017L89.8008 46.3596C89.8008 46.301 89.8501 46.2362 89.9427 46.2177L99.6723 44.3236C99.7016 44.3149 99.7327 44.3141 99.7624 44.3211C99.7922 44.3282 99.8196 44.3428 99.842 44.3637Z" fill="#26395A"/>
<path d="M98.7449 45.7027L99.0071 45.6533C99.0595 45.6533 99.0935 45.6101 99.0842 45.5762L98.7449 44.4842C98.7449 44.4502 98.6832 44.4348 98.6307 44.4441L98.3716 44.4934C98.3192 44.4934 98.2852 44.5397 98.2945 44.5705L98.6338 45.6657C98.6431 45.6965 98.6955 45.715 98.7449 45.7027Z" fill="#407BFF"/>
<path d="M92.8442 49.3442L90.8359 48.5977L91.1444 50.5072C91.1444 50.5072 92.6005 51.0316 93.3439 50.3591L92.8442 49.3442Z" fill="#E58A7B"/>
<path d="M88.9235 49.1036L88.4453 50.356L91.1446 50.5072L90.8361 48.5977L88.9235 49.1036Z" fill="#E58A7B"/>
<path d="M90.9881 47.2183L91.2503 47.1689C91.2997 47.1689 91.3367 47.1257 91.3243 47.0918L90.985 45.9998C90.985 45.9658 90.9264 45.9504 90.8739 45.9597L90.6117 46.009C90.5593 46.009 90.5254 46.0553 90.5377 46.0862L90.877 47.1813C90.8863 47.2121 90.9356 47.2306 90.9881 47.2183Z" fill="#407BFF"/>
<path d="M94.8691 46.4566L95.1282 46.4072C95.1806 46.4072 95.2146 46.364 95.2053 46.3301L94.866 45.2381C94.866 45.2041 94.8043 45.1887 94.7518 45.198L94.4927 45.2473C94.4403 45.2473 94.4063 45.2936 94.4156 45.3244L94.7549 46.4196C94.7672 46.4374 94.7851 46.4507 94.8057 46.4574C94.8263 46.4641 94.8486 46.4638 94.8691 46.4566Z" fill="#407BFF"/>
<path d="M93.7709 29.311C93.9899 29.2277 94.2644 29.9989 94.1966 30.0976C94.0392 30.3228 91.158 31.1094 91.0284 30.6683C91.0204 30.4292 91.057 30.1907 91.1364 29.965C91.2197 29.8169 91.8582 30.0883 93.7709 29.311Z" fill="#407BFF"/>
<path d="M93.2836 29.3298C93.3947 29.0738 93.7124 28.6635 93.9901 28.8979C94.2677 29.1324 94.3849 29.6383 94.2029 29.7216C94.0209 29.8049 93.0924 29.7586 93.2836 29.3298Z" fill="#407BFF"/>
<path d="M93.8727 29.4632C94.064 29.2596 94.4897 28.9789 94.684 29.2936C94.8784 29.6082 94.8074 30.1234 94.61 30.1388C94.4125 30.1542 93.5488 29.7995 93.8727 29.4632Z" fill="#407BFF"/>
<path d="M93.9765 29.4172C93.9609 29.2532 93.9931 29.0882 94.0692 28.942C94.1453 28.7959 94.262 28.6749 94.4053 28.5935C94.7569 28.3653 95.0993 28.2172 95.2351 27.9766C95.2936 28.2021 95.3051 28.4373 95.269 28.6676C95.1981 28.9976 94.1029 29.2506 94.177 29.5375L93.9765 29.4172Z" fill="#407BFF"/>
<path d="M93.9298 29.4036C93.8276 29.2741 93.7651 29.1178 93.7498 28.9536C93.7345 28.7894 93.767 28.6242 93.8434 28.4781C94.01 28.0956 94.2198 27.7871 94.2075 27.5156C94.3788 27.6734 94.5163 27.8645 94.6116 28.0771C94.7288 28.3856 93.9483 29.1969 94.1673 29.4005L93.9298 29.4036Z" fill="#407BFF"/>
<path d="M115.385 89.6618C115.379 89.6616 115.373 89.6598 115.368 89.6566C115.362 89.6533 115.358 89.6488 115.355 89.6433C115.284 89.5446 108.232 79.4818 105.647 70.6407C103.96 64.9695 102.663 59.1893 101.766 53.3409C101.232 50.0463 100.908 48.0565 99.8471 46.4247C99.8399 46.4172 99.8359 46.4072 99.8359 46.3969C99.8359 46.3866 99.8399 46.3766 99.8471 46.3691C99.8544 46.3628 99.8637 46.3594 99.8733 46.3594C99.8829 46.3594 99.8923 46.3628 99.8995 46.3691C100.973 48.0164 101.297 50.0123 101.831 53.3162C102.732 59.1563 104.031 64.928 105.718 70.5913C108.3 79.4202 115.345 89.4706 115.416 89.5724C115.422 89.5799 115.425 89.5891 115.425 89.5986C115.425 89.6081 115.422 89.6173 115.416 89.6248C115.416 89.6335 115.413 89.6418 115.407 89.6485C115.402 89.6552 115.394 89.6598 115.385 89.6618Z" fill="#407BFF"/>
<path opacity="0.4" d="M115.385 89.6618C115.379 89.6616 115.373 89.6598 115.368 89.6566C115.362 89.6533 115.358 89.6488 115.355 89.6433C115.284 89.5446 108.232 79.4818 105.647 70.6407C103.96 64.9695 102.663 59.1893 101.766 53.3409C101.232 50.0463 100.908 48.0565 99.8471 46.4247C99.8399 46.4172 99.8359 46.4072 99.8359 46.3969C99.8359 46.3866 99.8399 46.3766 99.8471 46.3691C99.8544 46.3628 99.8637 46.3594 99.8733 46.3594C99.8829 46.3594 99.8923 46.3628 99.8995 46.3691C100.973 48.0164 101.297 50.0123 101.831 53.3162C102.732 59.1563 104.031 64.928 105.718 70.5913C108.3 79.4202 115.345 89.4706 115.416 89.5724C115.422 89.5799 115.425 89.5891 115.425 89.5986C115.425 89.6081 115.422 89.6173 115.416 89.6248C115.416 89.6335 115.413 89.6418 115.407 89.6485C115.402 89.6552 115.394 89.6598 115.385 89.6618Z" fill="black"/>
<path d="M102.352 97.0906L97.6386 97.7014L97.3301 96.3872L102.238 95.3477L102.352 97.0906Z" fill="#407BFF"/>
<path d="M116.801 89.5202L113.325 91.5285L112.152 90.5259L115.956 87.9531L116.801 89.5202Z" fill="#407BFF"/>
<path d="M100.485 33.543C100.652 34.4006 100.747 35.2088 100.84 36.0448C100.932 36.8808 100.966 37.7075 100.991 38.5435C101.016 39.3861 100.997 40.2293 100.935 41.07C100.902 41.4926 100.865 41.9152 100.806 42.3409C100.781 42.5507 100.753 42.7636 100.713 42.9764L100.599 43.6304C100.473 44.1635 100.241 44.6659 99.9175 45.108C99.6521 45.4801 99.3593 45.8317 99.0414 46.16C98.4461 46.7715 97.8069 47.3385 97.1288 47.8566C95.817 48.8666 94.4288 49.7732 92.9766 50.5682L92.3164 49.5441C92.9334 49.0536 93.5503 48.5476 94.1673 48.0325C94.7843 47.5173 95.3704 46.996 95.9349 46.453C96.4928 45.9305 97.0192 45.3752 97.5113 44.7903C97.7373 44.5197 97.9435 44.2331 98.1283 43.9327C98.274 43.7139 98.3785 43.4703 98.4367 43.214C98.5371 42.4651 98.5958 41.7112 98.6126 40.9558C98.6126 40.5702 98.6126 40.1846 98.6126 39.799C98.6126 39.4134 98.5972 39.0217 98.5786 38.633C98.5416 37.8556 98.4707 37.0905 98.3874 36.3008C98.3041 35.5111 98.1961 34.7306 98.0789 33.9995L100.485 33.543Z" fill="#E58A7B"/>
<path d="M100.111 30.9213C101.429 31.9886 101.114 35.1598 101.114 35.1598L96.6719 36.6221C96.6719 36.6221 96.8755 32.9665 97.0976 31.6524C97.3567 30.0884 98.8128 29.8693 100.111 30.9213Z" fill="#407BFF"/>
<path opacity="0.2" d="M100.111 30.9213C101.429 31.9886 101.114 35.1598 101.114 35.1598L96.6719 36.6221C96.6719 36.6221 96.8755 32.9665 97.0976 31.6524C97.3567 30.0884 98.8128 29.8693 100.111 30.9213Z" fill="black"/>
<path d="M41.4298 44.1509C41.2575 43.4029 40.8366 42.7355 40.236 42.2576C39.6354 41.7796 38.8904 41.5195 38.1229 41.5195H13.4441C12.5441 41.5195 11.681 41.877 11.0447 42.5134C10.4083 43.1498 10.0508 44.0129 10.0508 44.9129V99.7676C10.0508 100.668 10.4083 101.531 11.0447 102.167C11.681 102.803 12.5441 103.161 13.4441 103.161H91.7992C92.6991 103.161 93.5622 102.803 94.1986 102.167C94.835 101.531 95.1925 100.668 95.1925 99.7676V53.6892C95.1925 52.7893 94.835 51.9262 94.1986 51.2898C93.5622 50.6534 92.6991 50.2959 91.7992 50.2959H49.1512C47.3588 50.2962 45.6193 49.6887 44.2168 48.5725C42.8144 47.4564 41.8319 45.8976 41.4298 44.1509Z" fill="#407BFF"/>
<path opacity="0.6" d="M41.4298 44.1509C41.2575 43.4029 40.8366 42.7355 40.236 42.2576C39.6354 41.7796 38.8904 41.5195 38.1229 41.5195H13.4441C12.5441 41.5195 11.681 41.877 11.0447 42.5134C10.4083 43.1498 10.0508 44.0129 10.0508 44.9129V99.7676C10.0508 100.668 10.4083 101.531 11.0447 102.167C11.681 102.803 12.5441 103.161 13.4441 103.161H91.7992C92.6991 103.161 93.5622 102.803 94.1986 102.167C94.835 101.531 95.1925 100.668 95.1925 99.7676V53.6892C95.1925 52.7893 94.835 51.9262 94.1986 51.2898C93.5622 50.6534 92.6991 50.2959 91.7992 50.2959H49.1512C47.3588 50.2962 45.6193 49.6887 44.2168 48.5725C42.8144 47.4564 41.8319 45.8976 41.4298 44.1509Z" fill="black"/>
<path opacity="0.22" d="M32.7188 27.0703L34.9182 34.1932C35.199 35.0998 35.8281 35.8578 36.6674 36.3009C37.5066 36.7439 38.4874 36.8357 39.3944 36.5562L46.5142 34.3567L32.7188 27.0703Z" fill="#407BFF"/>
<path d="M32.7175 27.0703L7.26756 34.9336C6.81829 35.0716 6.40064 35.2968 6.03851 35.5964C5.67637 35.896 5.37686 36.2641 5.1571 36.6795C4.93734 37.095 4.80165 37.5497 4.75779 38.0176C4.71393 38.4856 4.76276 38.9576 4.90149 39.4066L19.4311 86.4443C19.5698 86.8934 19.7956 87.3108 20.0956 87.6726C20.3956 88.0345 20.764 88.3336 21.1796 88.5531C21.5953 88.7725 22.0501 88.9079 22.5181 88.9515C22.9861 88.9951 23.4582 88.9461 23.9072 88.8073L56.4801 78.7445C56.9291 78.6062 57.3464 78.3807 57.7082 78.081C58.07 77.7813 58.3692 77.4132 58.5886 76.9978C58.8081 76.5823 58.9435 76.1277 58.9872 75.66C59.0308 75.1922 58.9819 74.7204 58.8431 74.2715L46.5037 34.3567L32.7175 27.0703Z" fill="#407BFF"/>
<path opacity="0.8" d="M32.7175 27.0703L7.26756 34.9336C6.81829 35.0716 6.40064 35.2968 6.03851 35.5964C5.67637 35.896 5.37686 36.2641 5.1571 36.6795C4.93734 37.095 4.80165 37.5497 4.75779 38.0176C4.71393 38.4856 4.76276 38.9576 4.90149 39.4066L19.4311 86.4443C19.5698 86.8934 19.7956 87.3108 20.0956 87.6726C20.3956 88.0345 20.764 88.3336 21.1796 88.5531C21.5953 88.7725 22.0501 88.9079 22.5181 88.9515C22.9861 88.9951 23.4582 88.9461 23.9072 88.8073L56.4801 78.7445C56.9291 78.6062 57.3464 78.3807 57.7082 78.081C58.07 77.7813 58.3692 77.4132 58.5886 76.9978C58.8081 76.5823 58.9435 76.1277 58.9872 75.66C59.0308 75.1922 58.9819 74.7204 58.8431 74.2715L46.5037 34.3567L32.7175 27.0703Z" fill="white"/>
<g opacity="0.28">
<path d="M46.4129 76.6877L25.2386 83.2276C24.8426 83.3492 24.4146 83.3091 24.0481 83.116C23.6816 82.923 23.4064 82.5926 23.2828 82.1973C23.1622 81.8013 23.2032 81.3737 23.3969 81.0078C23.5905 80.642 23.921 80.3676 24.3162 80.2446L45.4906 73.7016C45.887 73.5801 46.3154 73.6207 46.6819 73.8143C47.0485 74.008 47.3234 74.3391 47.4464 74.735C47.5669 75.131 47.5259 75.5586 47.3323 75.9245C47.1387 76.2903 46.8082 76.5647 46.4129 76.6877Z" fill="#407BFF"/>
</g>
<g opacity="0.28">
<path d="M23.6242 38.306L12.4262 41.7641C12.0302 41.8849 11.6025 41.8444 11.2362 41.6514C10.87 41.4584 10.5947 41.1286 10.4704 40.7337C10.3497 40.3373 10.3907 39.9093 10.5842 39.543C10.7778 39.1766 11.1083 38.9016 11.5038 38.778L22.7018 35.3198C23.0978 35.1974 23.5262 35.2371 23.8929 35.4303C24.2596 35.6235 24.5347 35.9543 24.6576 36.3502C24.7782 36.7466 24.7373 37.1746 24.5437 37.5409C24.3502 37.9073 24.0196 38.1823 23.6242 38.306Z" fill="#407BFF"/>
</g>
<g opacity="0.28">
<path d="M32.7609 41.9732L14.2518 47.6894C13.8567 47.8081 13.4306 47.7661 13.0662 47.5726C12.7018 47.3792 12.4284 47.0498 12.3053 46.656C12.1838 46.2604 12.224 45.8328 12.4171 45.4668C12.6102 45.1008 12.9405 44.8262 13.3356 44.7033L31.8447 38.987C32.2407 38.8654 32.6687 38.9055 33.0352 39.0986C33.4017 39.2917 33.6769 39.622 33.8005 40.0174C33.92 40.4146 33.8779 40.8429 33.6832 41.2092C33.4885 41.5755 33.157 41.8501 32.7609 41.9732Z" fill="#407BFF"/>
</g>
<g opacity="0.28">
<path d="M43.0944 45.2731L16.0835 53.6022C15.6879 53.7237 15.2603 53.6835 14.8943 53.4904C14.5283 53.2973 14.2538 52.967 14.1308 52.5718C14.01 52.1758 14.0505 51.7482 14.2435 51.3819C14.4364 51.0156 14.7663 50.7404 15.1611 50.616L42.172 42.287C42.5676 42.1663 42.9949 42.2069 43.3607 42.3999C43.7264 42.5929 44.0011 42.9226 44.1247 43.3173C44.2464 43.7133 44.2063 44.1413 44.0132 44.5078C43.8201 44.8743 43.4898 45.1495 43.0944 45.2731Z" fill="#407BFF"/>
</g>
<g opacity="0.28">
<path d="M44.9259 51.194L29.224 56.0465C28.8281 56.1671 28.4005 56.126 28.0346 55.9324C27.6687 55.7388 27.3944 55.4083 27.2713 55.0131C27.1506 54.6175 27.1912 54.1903 27.3842 53.8245C27.5772 53.4587 27.907 53.184 28.3017 53.0604L44.0035 48.2079C44.3999 48.0881 44.8276 48.1294 45.1937 48.3229C45.5598 48.5163 45.8349 48.8464 45.9593 49.2413C46.0799 49.6373 46.0389 50.0649 45.8452 50.4308C45.6516 50.7966 45.3211 51.071 44.9259 51.194Z" fill="#407BFF"/>
</g>
<g opacity="0.28">
<path d="M22.0231 58.2732L17.9172 59.5411C17.5212 59.6627 17.0931 59.6226 16.7266 59.4295C16.3602 59.2364 16.085 58.9061 15.9614 58.5107C15.8399 58.1143 15.8804 57.6859 16.0741 57.3194C16.2678 56.9528 16.5989 56.6779 16.9948 56.5549L21.1007 55.2871C21.4967 55.1663 21.9244 55.2068 22.2907 55.3997C22.6569 55.5927 22.9322 55.9225 23.0565 56.3174C23.1763 56.7138 23.135 57.1414 22.9416 57.5076C22.7481 57.8737 22.4181 58.1488 22.0231 58.2732Z" fill="#407BFF"/>
</g>
<g opacity="0.28">
<path d="M46.7572 57.1207L19.7463 65.4652C19.3503 65.5858 18.9227 65.5448 18.5568 65.3512C18.191 65.1576 17.9166 64.827 17.7936 64.4318C17.672 64.0362 17.7122 63.6086 17.9054 63.2426C18.0985 62.8766 18.4288 62.6021 18.8239 62.4791L45.8348 54.1346C46.2304 54.0139 46.6576 54.0545 47.0234 54.2475C47.3892 54.4405 47.6639 54.7703 47.7875 55.165C47.9091 55.5609 47.869 55.989 47.676 56.3555C47.4829 56.722 47.1525 56.9971 46.7572 57.1207Z" fill="#407BFF"/>
</g>
<g opacity="0.28">
<path d="M38.1629 66.2651L21.5757 71.389C21.1801 71.5097 20.7529 71.4691 20.3871 71.2761C20.0213 71.0831 19.7467 70.7534 19.623 70.3587C19.5022 69.9627 19.5427 69.535 19.7357 69.1688C19.9286 68.8025 20.2584 68.5272 20.6533 68.4029L37.2405 63.279C37.6369 63.1583 38.065 63.1993 38.4313 63.3928C38.7977 63.5864 39.0726 63.9169 39.1963 64.3124C39.3177 64.7084 39.2771 65.1364 39.0834 65.5024C38.8896 65.8685 38.5586 66.1428 38.1629 66.2651Z" fill="#407BFF"/>
</g>
<g opacity="0.28">
<path d="M48.5872 63.0473L44.1604 64.4139C43.7641 64.5345 43.336 64.4936 42.9697 64.3C42.6033 64.1064 42.3283 63.7759 42.2047 63.3804C42.0841 62.9845 42.1251 62.5569 42.3187 62.191C42.5124 61.8252 42.8429 61.5508 43.2381 61.4277L47.6648 60.0612C48.0604 59.9396 48.488 59.9798 48.854 60.1729C49.22 60.3661 49.4946 60.6964 49.6175 61.0915C49.7392 61.4875 49.6991 61.9155 49.506 62.282C49.3129 62.6485 48.9826 62.9237 48.5872 63.0473Z" fill="#407BFF"/>
</g>
<g opacity="0.28">
<path d="M50.4159 68.9751L23.4112 77.3042C23.0148 77.4257 22.5864 77.3851 22.2199 77.1914C21.8533 76.9977 21.5784 76.6667 21.4554 76.2707C21.334 75.8748 21.3746 75.4468 21.5684 75.0807C21.7621 74.7146 22.0931 74.4404 22.4888 74.318L49.4967 65.9735C49.893 65.8537 50.3207 65.895 50.6868 66.0885C51.053 66.282 51.3281 66.612 51.4524 67.007C51.5144 67.2042 51.5367 67.4118 51.5181 67.6177C51.4995 67.8237 51.4403 68.0239 51.3439 68.2068C51.2476 68.3898 51.116 68.5518 50.9567 68.6837C50.7974 68.8156 50.6137 68.9146 50.4159 68.9751Z" fill="#407BFF"/>
</g>
<path d="M50.9954 9.3809L59.0715 27.3779C59.2812 27.8477 59.2964 28.3814 59.1137 28.8623C58.931 29.3432 58.5654 29.7323 58.0967 29.9445L23.8364 45.3224C23.3668 45.5329 22.8327 45.5485 22.3516 45.3658C21.8704 45.183 21.4814 44.8168 21.2699 44.3476L13.1907 26.3506C12.9792 25.8806 12.9631 25.3458 13.1459 24.8639C13.3287 24.382 13.6954 23.9925 14.1655 23.781L48.4257 8.403C48.8964 8.19342 49.4308 8.17862 49.9123 8.36186C50.3938 8.54509 50.7832 8.91145 50.9954 9.3809Z" fill="#407BFF"/>
<path opacity="0.3" d="M50.9954 9.3809L59.0715 27.3779C59.2812 27.8477 59.2964 28.3814 59.1137 28.8623C58.931 29.3432 58.5654 29.7323 58.0967 29.9445L23.8364 45.3224C23.3668 45.5329 22.8327 45.5485 22.3516 45.3658C21.8704 45.183 21.4814 44.8168 21.2699 44.3476L13.1907 26.3506C12.9792 25.8806 12.9631 25.3458 13.1459 24.8639C13.3287 24.382 13.6954 23.9925 14.1655 23.781L48.4257 8.403C48.8964 8.19342 49.4308 8.17862 49.9123 8.36186C50.3938 8.54509 50.7832 8.91145 50.9954 9.3809Z" fill="black"/>
<path d="M45.5949 8.48932L44.5 8.98047L44.6263 9.26193L45.7211 8.77079L45.5949 8.48932Z" fill="#407BFF"/>
<path d="M42.9688 9.6677L39.5547 11.1992L39.6809 11.4807L43.0951 9.94917L42.9688 9.6677Z" fill="#407BFF"/>
<path d="M13.1603 28.1627L12.8789 28.2891L13.8139 30.3716L14.0954 30.2452L13.1603 28.1627Z" fill="#407BFF"/>
<path opacity="0.6" d="M49.8476 8.3389L41.0126 25.6449C40.1928 27.2489 38.8502 28.5252 37.2067 29.2628C35.5633 30.0004 33.7173 30.1551 31.974 29.7014L13.1719 24.7996C13.3648 24.3485 13.7189 23.9855 14.1652 23.7816L48.4255 8.40368C48.8743 8.203 49.3824 8.17985 49.8476 8.3389Z" fill="#407BFF"/>
<path d="M61.9943 30.4883L35.4091 32.1294C34.9394 32.1573 34.4798 32.2776 34.0567 32.4833C33.6336 32.6891 33.2552 32.9762 32.9431 33.3284C32.6311 33.6805 32.3916 34.0907 32.2383 34.5356C32.085 34.9804 32.0209 35.4511 32.0497 35.9207L35.0821 85.0561C35.1104 85.526 35.2311 85.9858 35.4374 86.409C35.6437 86.8322 35.9315 87.2106 36.2842 87.5224C36.637 87.8341 37.0479 88.0733 37.4932 88.226C37.9385 88.3787 38.4097 88.4421 38.8795 88.4124L72.9054 86.3116C73.3745 86.2833 73.8335 86.1628 74.2559 85.9568C74.6784 85.7508 75.056 85.4635 75.3673 85.1113C75.6785 84.7591 75.9171 84.3489 76.0696 83.9043C76.222 83.4597 76.2852 82.9894 76.2555 82.5203L73.6951 40.8225L61.9943 30.4883Z" fill="#407BFF"/>
<path opacity="0.8" d="M61.9943 30.4883L35.4091 32.1294C34.9394 32.1573 34.4798 32.2776 34.0567 32.4833C33.6336 32.6891 33.2552 32.9762 32.9431 33.3284C32.6311 33.6805 32.3916 34.0907 32.2383 34.5356C32.085 34.9804 32.0209 35.4511 32.0497 35.9207L35.0821 85.0561C35.1104 85.526 35.2311 85.9858 35.4374 86.409C35.6437 86.8322 35.9315 87.2106 36.2842 87.5224C36.637 87.8341 37.0479 88.0733 37.4932 88.226C37.9385 88.3787 38.4097 88.4421 38.8795 88.4124L72.9054 86.3116C73.3745 86.2833 73.8335 86.1628 74.2559 85.9568C74.6784 85.7508 75.056 85.4635 75.3673 85.1113C75.6785 84.7591 75.9171 84.3489 76.0696 83.9043C76.222 83.4597 76.2852 82.9894 76.2555 82.5203L73.6951 40.8225L61.9943 30.4883Z" fill="white"/>
<g opacity="0.22">
<path d="M63.6017 81.9301L41.4803 83.2967C41.067 83.3203 40.6612 83.1795 40.3514 82.905C40.0416 82.6305 39.853 82.2445 39.8268 81.8314C39.8031 81.4183 39.9434 81.0126 40.2172 80.7024C40.491 80.3922 40.8762 80.2026 41.289 80.1748L63.4104 78.8113C63.8237 78.7868 64.2299 78.9268 64.5403 79.2008C64.8506 79.4748 65.04 79.8604 65.067 80.2736C65.0915 80.6873 64.951 81.094 64.6764 81.4044C64.4018 81.7149 64.0154 81.9039 63.6017 81.9301Z" fill="#407BFF"/>
</g>
<g opacity="0.22">
<path d="M50.5084 39.2644L38.8076 39.9801C38.3945 40.0038 37.9888 39.8635 37.6786 39.5897C37.3684 39.3159 37.1788 38.9307 37.151 38.5179C37.1273 38.1043 37.2681 37.6981 37.5425 37.3878C37.817 37.0776 38.2029 36.8883 38.6163 36.8613L50.3171 36.1395C50.7301 36.115 51.1359 36.2551 51.4458 36.5291C51.7557 36.8032 51.9444 37.1888 51.9706 37.6017C51.9968 38.016 51.8576 38.4238 51.5834 38.7355C51.3093 39.0472 50.9226 39.2375 50.5084 39.2644Z" fill="#407BFF"/>
</g>
<g opacity="0.22">
<path d="M58.5233 44.9811L39.1906 46.1718C38.7771 46.1972 38.3704 46.0574 38.0599 45.7833C37.7493 45.5092 37.5602 45.123 37.534 44.7096C37.5095 44.2958 37.6499 43.8892 37.9246 43.5787C38.1992 43.2683 38.5856 43.0793 38.9993 43.0531L58.3289 41.8623C58.7424 41.837 59.149 41.9767 59.4596 42.2508C59.7702 42.525 59.9593 42.9111 59.9855 43.3245C60.01 43.7378 59.87 44.144 59.596 44.4544C59.322 44.7647 58.9364 44.9541 58.5233 44.9811Z" fill="#407BFF"/>
</g>
<g opacity="0.22">
<path d="M67.7857 50.6244L39.5717 52.3643C39.1571 52.3896 38.7494 52.2497 38.4377 51.975C38.1261 51.7004 37.936 51.3135 37.909 50.899C37.8845 50.486 38.0246 50.0802 38.2987 49.7703C38.5727 49.4604 38.9584 49.2717 39.3712 49.2455L67.5883 47.5026C68.0015 47.4789 68.4074 47.6197 68.7172 47.8943C69.027 48.1688 69.2155 48.5548 69.2418 48.9679C69.2663 49.3801 69.1272 49.7854 68.8545 50.0956C68.5818 50.4059 68.1977 50.5959 67.7857 50.6244Z" fill="#407BFF"/>
</g>
<g opacity="0.22">
<path d="M68.169 56.8131L51.7669 57.8249C51.3536 57.8495 50.9475 57.7094 50.6371 57.4355C50.3267 57.1615 50.1373 56.7758 50.1104 56.3627C50.085 55.9492 50.2247 55.5426 50.4989 55.232C50.773 54.9215 51.1591 54.7323 51.5726 54.7062L67.9747 53.6943C68.3882 53.669 68.7948 53.8087 69.1054 54.0829C69.4159 54.357 69.6051 54.7431 69.6312 55.1566C69.6558 55.5698 69.5157 55.976 69.2418 56.2864C68.9678 56.5968 68.5821 56.7861 68.169 56.8131Z" fill="#407BFF"/>
</g>
<g opacity="0.22">
<path d="M44.2441 58.2893L39.9531 58.5546C39.5401 58.5791 39.1343 58.439 38.8244 58.1649C38.5145 57.8909 38.3258 57.5052 38.2996 57.0924C38.2751 56.6791 38.4151 56.2729 38.6891 55.9626C38.9631 55.6522 39.3487 55.4628 39.7618 55.4358L44.0529 55.1705C44.4664 55.1469 44.8726 55.2876 45.1829 55.5621C45.4932 55.8365 45.6824 56.2225 45.7094 56.6358C45.7331 57.0491 45.5923 57.4549 45.3177 57.7647C45.0432 58.0745 44.6572 58.2631 44.2441 58.2893Z" fill="#407BFF"/>
</g>
<g opacity="0.22">
<path d="M68.552 63.0004L40.3349 64.7403C39.9216 64.7648 39.5155 64.6248 39.2051 64.3508C38.8947 64.0768 38.7053 63.6912 38.6783 63.2781C38.6547 62.8645 38.7954 62.4583 39.0699 62.148C39.3443 61.8377 39.7303 61.6485 40.1436 61.6215L68.3576 59.8816C68.7714 59.8572 69.178 59.9976 69.4885 60.2722C69.799 60.5468 69.988 60.9333 70.0142 61.3469C70.0387 61.7599 69.8986 62.1657 69.6245 62.4756C69.3505 62.7855 68.9648 62.9742 68.552 63.0004Z" fill="#407BFF"/>
</g>
<g opacity="0.22">
<path d="M58.0453 69.8596L40.7177 70.9301C40.3041 70.9537 39.898 70.813 39.5877 70.5385C39.2774 70.2641 39.0881 69.8781 39.0612 69.4648C39.0375 69.0515 39.1783 68.6457 39.4529 68.3359C39.7274 68.0261 40.1134 67.8375 40.5265 67.8113L57.854 66.7408C58.2673 66.7172 58.6731 66.858 58.9829 67.1325C59.2927 67.4071 59.4813 67.793 59.5075 68.2061C59.5328 68.6193 59.393 69.0256 59.1188 69.3357C58.8446 69.6457 58.4584 69.8342 58.0453 69.8596Z" fill="#407BFF"/>
</g>
<g opacity="0.22">
<path d="M68.9321 69.192L64.3048 69.4758C63.8919 69.5003 63.486 69.3602 63.1762 69.0862C62.8663 68.8121 62.6776 68.4265 62.6514 68.0136C62.626 67.6001 62.7658 67.1935 63.0399 66.8829C63.314 66.5724 63.7002 66.3832 64.1136 66.3571L68.7408 66.0732C69.1543 66.0479 69.561 66.1876 69.8715 66.4618C70.1821 66.7359 70.3712 67.122 70.3974 67.5355C70.4211 67.949 70.2804 68.3552 70.0059 68.6655C69.7314 68.9758 69.3455 69.165 68.9321 69.192Z" fill="#407BFF"/>
</g>
<g opacity="0.22">
<path d="M69.3147 75.3793L41.1007 77.1192C40.6874 77.1437 40.2813 77.0037 39.9709 76.7297C39.6605 76.4558 39.4711 76.0701 39.4442 75.657C39.4196 75.2437 39.5597 74.8375 39.8336 74.5271C40.1076 74.2168 40.4933 74.0274 40.9064 74.0004L69.1234 72.2606C69.5364 72.2361 69.9422 72.3762 70.2521 72.6502C70.562 72.9243 70.7507 73.3099 70.7769 73.7228C70.8023 74.1363 70.6625 74.5429 70.3884 74.8535C70.1143 75.164 69.7281 75.3532 69.3147 75.3793Z" fill="#407BFF"/>
</g>
<path opacity="0.22" d="M61.9922 30.4883L62.4518 37.9289C62.4805 38.3981 62.6014 38.857 62.8074 39.2794C63.0135 39.7018 63.3008 40.0795 63.6528 40.3909C64.0049 40.7023 64.4149 40.9413 64.8593 41.0942C65.3038 41.2471 65.774 41.311 66.2431 41.2822L73.693 40.8225L61.9922 30.4883Z" fill="#407BFF"/>
<path opacity="0.5" d="M53.2884 49.0476C53.2837 48.6911 53.2077 48.339 53.0647 48.0124C52.9217 47.6857 52.7146 47.391 52.4558 47.1457C52.197 46.9004 51.8916 46.7095 51.5578 46.5842C51.2239 46.4589 50.8683 46.4018 50.512 46.4163H25.8024C23.9299 46.4163 22.1006 47.9371 21.749 49.8096L11.9978 99.7686C11.6337 101.641 12.8553 103.162 14.7278 103.162H93.0829C94.9554 103.162 96.7693 101.644 97.1364 99.7686L105.179 58.586C105.543 56.7104 104.321 55.1926 102.448 55.1926H59.8128C56.111 55.1926 53.4149 52.6446 53.2884 49.0476Z" fill="#407BFF"/>
</svg>
